<?xml version="1.0" encoding="UTF-8"?>
<svg version="1.1" xmlns="http://www.w3.org/2000/svg" width="500" height="500">
<path d="M0 0 C165 0 330 0 500 0 C500 165 500 330 500 500 C335 500 170 500 0 500 C0 335 0 170 0 0 Z " fill="#FEFEFE" transform="translate(0,0)"/>
<path d="M0 0 C0.99 2.97 0.99 2.97 2 6 C3.65 5.67 5.3 5.34 7 5 C7.25394531 5.66386719 7.50789062 6.32773437 7.76953125 7.01171875 C9.83686973 12.43499015 9.83686973 12.43499015 12.625 17.5 C14.41044112 20.74625659 14.88834136 23.89245499 15.53125 27.51953125 C15.99480601 30.20563989 15.99480601 30.20563989 17.0625 33.5625 C17.81247106 36.31239389 18.19550269 38.57267117 18.4375 41.375 C18.82508772 45.45159223 19.8674039 48.97339156 21.24609375 52.81640625 C21.95419638 54.86733562 22.50266981 56.88948114 23 59 C23.66522078 61.79832542 24.48363411 64.47417165 25.4375 67.1875 C27.03868765 71.87097389 28.1005426 76.62368719 29.18359375 81.44921875 C30.06769702 85.29443344 31.00910109 89.11863707 32 92.9375 C32.309375 94.14277344 32.61875 95.34804687 32.9375 96.58984375 C33.98872453 99.96381071 35.39044077 102.86265059 37 106 C37.50251138 107.52783764 37.9635808 109.07015602 38.375 110.625 C40.54398673 118.16535179 43.56657482 125.38766067 47.25 132.3125 C49.10760658 135.88539653 49.66658615 138.99903375 50 143 C52.64 142.67 55.28 142.34 58 142 C58 141.34 58 140.68 58 140 C70.70577986 135.22877868 83.59997161 131.48085749 96.68896484 127.91308594 C100.0453753 126.98748683 103.39246687 126.03346475 106.73828125 125.0703125 C107.83978516 124.75505615 108.94128906 124.4397998 110.07617188 124.11499023 C112.16083293 123.51755305 114.24427382 122.91583328 116.32617188 122.30883789 C122.24988706 120.62379718 128.10168436 119.42777736 134.18530273 118.48071289 C138.16902992 117.80034522 142.0004267 116.75990879 145.875 115.625 C146.64110596 115.40730957 147.40721191 115.18961914 148.1965332 114.96533203 C151.71716028 113.96236908 155.22883491 112.93209079 158.73828125 111.890625 C169.50690314 108.71979636 180.41305286 105.98074141 191.65625 105.30859375 C194.15986623 105.04554954 194.15986623 105.04554954 197.1015625 104.04296875 C201.93704343 102.60309594 206.86576698 102.28960409 211.875 101.875 C212.81730469 101.78863281 213.75960938 101.70226562 214.73046875 101.61328125 C232.30581047 100.08181994 232.30581047 100.08181994 239 105 C241.42252366 108.5090376 241.26769185 111.82472373 241.25 116 C241.25515625 117.216875 241.2603125 118.43375 241.265625 119.6875 C241.01981559 122.75288791 240.6149234 124.43662952 239 127 C238.34 127 237.68 127 237 127 C236.60941406 127.85271484 236.60941406 127.85271484 236.2109375 128.72265625 C234.43251998 132.06722856 232.07872389 134.86707758 229.7265625 137.82421875 C228.44676127 139.43699993 227.2109703 141.08491584 226 142.75 C223.38050904 145.69692733 220.4155078 148.02304351 217 150 C216.34 150 215.68 150 215 150 C214.89510254 150.60593994 214.79020508 151.21187988 214.68212891 151.83618164 C213.53863114 155.46353337 210.31648569 157.24195575 207.375 159.4375 C206.77042969 159.90220703 206.16585938 160.36691406 205.54296875 160.84570312 C203.70799004 162.24834677 201.8573524 163.62715319 200 165 C199.35579102 165.48227051 198.71158203 165.96454102 198.04785156 166.46142578 C193.23917973 170 193.23917973 170 191 170 C190.67515625 170.86238281 190.67515625 170.86238281 190.34375 171.7421875 C188.55854099 174.74175379 186.36031023 176.14536424 183.5 178.125 C179.56469261 180.84168269 179.56469261 180.84168269 176 184 C175.01 184 174.02 184 173 184 C173 184.99 173 185.98 173 187 C168.77142857 191 168.77142857 191 165 191 C164.67 191.99 164.34 192.98 164 194 C163.34 194 162.68 194 162 194 C161.67 194.99 161.34 195.98 161 197 C159.24710944 198.62909091 157.42426823 200.18404347 155.5625 201.6875 C154.57378906 202.49574219 153.58507812 203.30398437 152.56640625 204.13671875 C150 206 150 206 148 206 C147.7525 206.598125 147.505 207.19625 147.25 207.8125 C145.81927475 210.31626919 144.4308418 211.48072388 142 213 C141.34 213 140.68 213 140 213 C140 213.66 140 214.32 140 215 C139.34 215 138.68 215 138 215 C138 215.66 138 216.32 138 217 C136.3214487 218.49629179 134.58041102 219.92292661 132.8125 221.3125 C128.30123503 224.86957506 124.22649967 228.60857442 120.3125 232.8125 C119 234 119 234 117 234 C117 234.66 117 235.32 117 236 C116.34 236 115.68 236 115 236 C114.6596875 236.928125 114.6596875 236.928125 114.3125 237.875 C112.61137042 240.6292098 110.94623846 240.82150461 108 242 C106.65589738 244.01735205 106.65589738 244.01735205 106 246 C105.34 246 104.68 246 104 246 C104 246.66 104 247.32 104 248 C102 247 102 247 101 246 C101.0928125 247.1446875 101.0928125 247.1446875 101.1875 248.3125 C101 251 101 251 99.5 252.8125 C98.7575 253.4003125 98.7575 253.4003125 98 254 C100.70161308 257.46910166 100.70161308 257.46910166 103.75 260.625 C105 262 105 262 105 265 C105.99 265 106.98 265 108 265 C108 265.66 108 266.32 108 267 C108.99 267.33 109.98 267.66 111 268 C111.4640625 269.2375 111.4640625 269.2375 111.9375 270.5 C112.288125 271.325 112.63875 272.15 113 273 C115.04105639 273.88693303 115.04105639 273.88693303 117 274 C117 274.66 117 275.32 117 276 C117.81210937 276.34224609 117.81210937 276.34224609 118.640625 276.69140625 C121.73053725 278.40518209 124.12641502 280.5741913 126.75 282.9375 C127.73484375 283.81277344 128.7196875 284.68804687 129.734375 285.58984375 C132 288 132 288 132 291 C132.7425 291.2475 133.485 291.495 134.25 291.75 C137.23023087 293.10465039 138.89919252 294.5101541 141 297 C141 297.66 141 298.32 141 299 C141.58265625 299.25007813 142.1653125 299.50015625 142.765625 299.7578125 C145.29893083 301.16618882 146.83518977 302.70651832 148.75 304.875 C149.36359375 305.55304688 149.9771875 306.23109375 150.609375 306.9296875 C152 309 152 309 152 313 C152.74636719 313.08636719 153.49273437 313.17273438 154.26171875 313.26171875 C157.5373901 314.14488834 158.6340246 315.2543339 160.8125 317.8125 C161.41707031 318.49957031 162.02164062 319.18664062 162.64453125 319.89453125 C164 322 164 322 164 326 C164.66 326 165.32 326 166 326 C166 326.66 166 327.32 166 328 C166.92039062 328.3403125 166.92039062 328.3403125 167.859375 328.6875 C170.66311215 330.40657971 171.1307629 331.94430507 172.25 335 C172.58515625 335.886875 172.9203125 336.77375 173.265625 337.6875 C174 340 174 340 174 342 C174.66 342 175.32 342 176 342 C176.4125 343.051875 176.825 344.10375 177.25 345.1875 C178.96243779 349.18859872 180.98526863 352.99263432 185 355 C185 356.65 185 358.3 185 360 C185.66 360 186.32 360 187 360 C186.80960507 368.10043881 186.80960507 368.10043881 183.75 371.5 C172.72517751 377.51353954 153.57191219 374.33403874 141.7578125 371.1171875 C139.12145613 370.16869668 136.56535488 369.12515565 134 368 C132.27244506 367.30846002 130.54328646 366.6209119 128.8125 365.9375 C128.00683594 365.61136719 127.20117188 365.28523438 126.37109375 364.94921875 C122.93533713 363.57378406 119.47036348 362.28531981 116 361 C116 360.34 116 359.68 116 359 C114.98808594 358.90460938 113.97617187 358.80921875 112.93359375 358.7109375 C108.73891254 357.9528124 105.81196904 356.62415447 102.0625 354.625 C98.23399996 352.6189674 94.46471758 350.677181 90.375 349.25 C87.33415945 348.12376276 85.5041613 346.9675553 83 345 C80.85266073 344.29485154 80.85266073 344.29485154 79 344 C79 343.34 79 342.68 79 342 C77.68 341.67 76.36 341.34 75 341 C75 340.34 75 339.68 75 339 C74.43410156 338.89042969 73.86820312 338.78085937 73.28515625 338.66796875 C72.55167969 338.50941406 71.81820313 338.35085938 71.0625 338.1875 C69.96615234 337.96126953 69.96615234 337.96126953 68.84765625 337.73046875 C68.23792969 337.48941406 67.62820313 337.24835938 67 337 C66.67 336.01 66.34 335.02 66 334 C65.01 334.33 64.02 334.66 63 335 C62.88406494 335.86802246 62.76812988 336.73604492 62.64868164 337.63037109 C62.21728712 340.84739707 61.78270557 344.06397164 61.34594727 347.28027344 C61.15749035 348.67300415 60.97030878 350.06590805 60.78442383 351.45898438 C60.51718277 353.4600854 60.24498988 355.46052317 59.97265625 357.4609375 C59.81031494 358.66540527 59.64797363 359.86987305 59.48071289 361.11083984 C59 364 59 364 58 366 C57.75002376 368.47594616 57.55079288 370.93604702 57.38671875 373.41796875 C57.27433436 374.98318369 57.16152267 376.54836799 57.04833984 378.11352539 C56.98974792 378.94063019 56.93115601 379.76773499 56.87078857 380.61990356 C55.82372986 395.28761661 54.37263752 409.80586166 52.3449707 424.36938477 C51.19850646 432.80787536 50.48586594 441.15824091 50.32763672 449.67407227 C50.22762389 453.98048049 49.73419512 457.00609609 48 461 C47.65968839 463.28494936 47.37128525 465.57801303 47.125 467.875 C46.38314052 473.57056632 45.32547319 477.34433753 42 482 C33.26596169 482.45790104 33.26596169 482.45790104 29.0625 480.9375 C26.83593412 478.84587751 25.99062935 476.97569631 24.9296875 474.14453125 C21.6752735 466.63750064 16.28614337 459.86524882 11.48046875 453.2890625 C10 451 10 451 8.94921875 448.3203125 C8.15020644 445.7927778 8.15020644 445.7927778 5.625 444.25 C1.18604896 440.44518482 -0.38079128 435.25434863 -1.90234375 429.71484375 C-3.11523366 425.61000993 -4.65856286 421.78877262 -6.375 417.875 C-6.66632813 417.18535156 -6.95765625 416.49570312 -7.2578125 415.78515625 C-9.06049562 411.65005419 -11.14901702 408.52496013 -14 405 C-14.90625 402.60546875 -14.90625 402.60546875 -15.5 400.1875 C-16.60723714 396.12562462 -18.05733124 392.64922448 -20.02734375 388.94140625 C-21.32219534 386.35690327 -22.26448497 383.69173688 -23.19140625 380.95703125 C-23.98253666 378.88102761 -23.98253666 378.88102761 -25.453125 376.71875 C-27.30738829 373.45974179 -28.20770537 370.30260431 -29.1875 366.6875 C-29.53167969 365.43324219 -29.87585938 364.17898438 -30.23046875 362.88671875 C-30.48441406 361.93410156 -30.73835937 360.98148437 -31 360 C-34.47147842 359.25042843 -34.47147842 359.25042843 -38 359 C-37.67 359.99 -37.34 360.98 -37 362 C-37.66 362.99 -38.32 363.98 -39 365 C-39.66 365 -40.32 365 -41 365 C-41 365.66 -41 366.32 -41 367 C-42.175625 367.0928125 -42.175625 367.0928125 -43.375 367.1875 C-44.24125 367.455625 -45.1075 367.72375 -46 368 C-47.13545562 370.29534258 -47.13545562 370.29534258 -48 373 C-50.36023474 376.30432864 -52.70425642 378.6610852 -56 381 C-56.804375 381.8353125 -56.804375 381.8353125 -57.625 382.6875 C-59 384 -59 384 -61 384 C-61.33 384.99 -61.66 385.98 -62 387 C-63.32 386.67 -64.64 386.34 -66 386 C-65.67 386.99 -65.34 387.98 -65 389 C-66.60089728 390.76941278 -68.0596367 392.03508041 -70.125 393.25 C-73.66917958 395.4073267 -76.79359475 397.96185926 -80.01171875 400.57421875 C-82 402 -82 402 -84 402 C-84 402.66 -84 403.32 -84 404 C-85.68113694 405.3337216 -87.42195478 406.59271116 -89.1875 407.8125 C-93.19859488 410.65626342 -96.6869201 413.38573102 -100 417 C-104.96648359 422.3089997 -110.6445716 426.28001471 -117.01171875 429.734375 C-120.72412287 432.09747703 -124.00300001 435.03406734 -127.3515625 437.87890625 C-133.74585635 443 -133.74585635 443 -137 443 C-137 443.66 -137 444.32 -137 445 C-139.94568748 447.41010794 -141.4770911 448.02959862 -145.3125 447.8125 C-146.529375 447.544375 -147.74625 447.27625 -149 447 C-149.7115625 446.86207031 -150.423125 446.72414063 -151.15625 446.58203125 C-156.73338608 445.39992089 -156.73338608 445.39992089 -159 442 C-160.48832197 430.98397758 -158.87230269 422.14053965 -154.41748047 412.04736328 C-150.85080397 403.95201781 -148.29796132 395.67093337 -145.79101562 387.1953125 C-142.81441855 377.17347831 -139.37647583 367.49553059 -135 358 C-134.08295142 355.97933995 -133.16629149 353.95850348 -132.25 351.9375 C-131.50037868 350.29149416 -130.75051581 348.64559818 -130 347 C-129.34 347 -128.68 347 -128 347 C-127.87625 346.113125 -127.7525 345.22625 -127.625 344.3125 C-126.83649467 340.13342176 -126.03680191 337.03680191 -123 334 C-122.42883482 332.07192534 -122.42883482 332.07192534 -122.0625 329.875 C-121.14580451 325.35019108 -119.71333501 321.28333754 -118 317 C-117.34 317 -116.68 317 -116 317 C-115.896875 316.113125 -115.79375 315.22625 -115.6875 314.3125 C-114.98809298 310.9426298 -113.91257489 308.82728462 -112 306 C-112.5993335 306.01160156 -113.19866699 306.02320313 -113.81616211 306.03515625 C-120.13546035 306.10362499 -126.28315451 305.66628987 -132.5625 305 C-140.34058346 304.22212545 -147.99281239 303.80642191 -155.80883789 303.98632812 C-158.86139109 304.05043976 -161.07037589 303.97654137 -164 303 C-165.61420283 302.8642292 -167.23266927 302.77592677 -168.8515625 302.71875 C-169.78484375 302.68136719 -170.718125 302.64398438 -171.6796875 302.60546875 C-173.65103168 302.53487685 -175.62238597 302.46456655 -177.59375 302.39453125 C-178.52445313 302.35714844 -179.45515625 302.31976563 -180.4140625 302.28125 C-181.2695166 302.25095703 -182.1249707 302.22066406 -183.00634766 302.18945312 C-185 302 -185 302 -186 301 C-189.36209065 300.71530684 -192.72414001 300.55104937 -196.09375 300.37890625 C-197.0528125 300.25386719 -198.011875 300.12882812 -199 300 C-199.33 299.34 -199.66 298.68 -200 298 C-202.38126168 297.45693214 -202.38126168 297.45693214 -205.1875 297.125 C-209.99428666 296.31970717 -213.28601429 295.3330641 -217 292 C-218.87480544 288.67648127 -219.64513044 285.77862114 -219 282 C-216.45584144 278.46644644 -213.83055603 275.15468776 -210 273 C-207.25 272.8125 -207.25 272.8125 -205 273 C-205 272.01 -205 271.02 -205 270 C-203.96875 269.87625 -202.9375 269.7525 -201.875 269.625 C-198.37883154 269.06110186 -195.31602373 268.21317941 -192 267 C-192 266.01 -192 265.02 -192 264 C-191.01 263.67 -190.02 263.34 -189 263 C-188.34 263.33 -187.68 263.66 -187 264 C-186.67 263.34 -186.34 262.68 -186 262 C-184.69917932 261.27192872 -183.35356962 260.62455704 -182 260 C-180.77177757 259.3900499 -179.54539915 258.77638036 -178.3203125 258.16015625 C-169.9453125 253.97265625 -169.9453125 253.97265625 -167.90771484 252.95874023 C-166.21545864 252.10828079 -164.53635218 251.23176694 -162.859375 250.3515625 C-159.96820326 248.98497039 -157.21886909 248.10483233 -154.125 247.3125 C-152.67480469 246.93544922 -152.67480469 246.93544922 -151.1953125 246.55078125 C-150.10863281 246.27814453 -150.10863281 246.27814453 -149 246 C-149 245.34 -149 244.68 -149 244 C-148.50113281 243.79246094 -148.00226563 243.58492187 -147.48828125 243.37109375 C-140.42439678 240.34009126 -133.72848512 236.70222674 -127 233 C-129.67325786 223.25418592 -136.07079044 217.43939229 -143.20678711 210.66430664 C-144.32065796 209.60651001 -144.32065796 209.60651001 -145.45703125 208.52734375 C-146.13741455 207.89562256 -146.81779785 207.26390137 -147.51879883 206.61303711 C-149 205 -149 205 -149 203 C-149.99 202.67 -150.98 202.34 -152 202 C-153.41696507 200.42945794 -154.76106816 198.79253336 -156.0625 197.125 C-159.26704757 193.09850678 -162.54732907 189.26470467 -166.0625 185.5 C-170.84788655 180.29913802 -174.93423344 174.76934909 -179 169 C-180.05649618 167.57885029 -181.11848293 166.16175536 -182.1875 164.75 C-186.04425394 159.6251286 -189.69891021 154.50181631 -193 149 C-193.85009831 147.8511451 -194.70459622 146.70553798 -195.5625 145.5625 C-197.18494421 143.33223745 -198.04243411 141.86360464 -198.875 139.1875 C-200.32888059 135.06817166 -202.67937798 131.97398216 -205.24609375 128.46484375 C-207 126 -207 126 -208.59765625 123.25390625 C-209.80116003 120.88142866 -209.80116003 120.88142866 -212 120 C-212.625 117.4375 -212.625 117.4375 -213 115 C-213.99 114.67 -214.98 114.34 -216 114 C-216.1953125 111.94921875 -216.390625 109.8984375 -216.5859375 107.84765625 C-216.79089844 106.93306641 -216.79089844 106.93306641 -217 106 C-217.66 105.67 -218.32 105.34 -219 105 C-219.42014232 98.90793639 -219.06715472 95.88058567 -215 91 C-211.05229304 88.36819536 -208.26019851 89.1991052 -203.8125 89.875 C-203.06291016 89.97941406 -202.31332031 90.08382812 -201.54101562 90.19140625 C-199.69250796 90.4504328 -197.84602568 90.72383966 -196 91 C-196 91.66 -196 92.32 -196 93 C-195.07380859 93.16435547 -195.07380859 93.16435547 -194.12890625 93.33203125 C-188.32727718 94.41818098 -182.40144648 95.53920434 -177 98 C-176.67 98.66 -176.34 99.32 -176 100 C-169.86516809 103.01762024 -163.37672528 105.34002566 -156.83984375 107.32421875 C-155 108 -155 108 -152 110 C-150.01463373 110.70905938 -148.01089078 111.36694179 -146 112 C-144.3742048 112.53927521 -142.74923223 113.08103543 -141.125 113.625 C-139.95324219 114.01558594 -139.95324219 114.01558594 -138.7578125 114.4140625 C-138.17773438 114.60742188 -137.59765625 114.80078125 -137 115 C-137 115.66 -137 116.32 -137 117 C-135.47632813 117.17402344 -135.47632813 117.17402344 -133.921875 117.3515625 C-130.09330786 117.9845726 -126.86941589 118.99895479 -123.25 120.375 C-118.05090551 122.29364781 -112.88766294 123.92319554 -107.52734375 125.31640625 C-104.33026504 126.18114933 -101.2143457 127.23236363 -98.08203125 128.3046875 C-95.0813359 129.30679589 -92.04876521 130.15672452 -89 131 C-89 131.66 -89 132.32 -89 133 C-88.09636719 133.12117187 -87.19273437 133.24234375 -86.26171875 133.3671875 C-85.08222656 133.53476563 -83.90273437 133.70234375 -82.6875 133.875 C-80.92986328 134.11863281 -80.92986328 134.11863281 -79.13671875 134.3671875 C-76 135 -76 135 -73 137 C-71.33333333 137.33333333 -69.66666667 137.66666667 -68 138 C-65.30344067 138.93226772 -62.65926339 139.963338 -60 141 C-60 141.66 -60 142.32 -60 143 C-58.68 143 -57.36 143 -56 143 C-54.33122496 138.39418088 -52.91234999 133.89362922 -52.0625 129.0625 C-51.4280681 125.65632874 -50.5522359 122.68256412 -49.1875 119.5 C-44.90945319 109.3576643 -42.07395412 98.2336255 -40.45703125 87.359375 C-39.89629676 84.46464311 -38.9540115 81.78970873 -38 79 C-37.27982843 76.5451086 -36.57169534 74.08665686 -35.875 71.625 C-35.34519531 69.75714844 -35.34519531 69.75714844 -34.8046875 67.8515625 C-34.53914062 66.91054687 -34.27359375 65.96953125 -34 65 C-33.34 65 -32.68 65 -32 65 C-31.814375 63.6696875 -31.814375 63.6696875 -31.625 62.3125 C-31.04818493 59.25538012 -30.16043822 56.86696502 -29 54 C-28.6500989 52.67091832 -28.31799345 51.33707481 -28 50 C-27.2488826 46.85469587 -26.20172126 44.00430316 -25 41 C-24.65385061 39.60728955 -24.3214081 38.21112741 -24 36.8125 C-23 33 -23 33 -21 31 C-20.28179656 29.20729687 -19.62162063 27.39093881 -19 25.5625 C-17.88630245 22.29536384 -16.92816995 19.89225493 -15 17 C-15.99 16.34 -16.98 15.68 -18 15 C-17.34 15 -16.68 15 -16 15 C-15.8453125 13.8553125 -15.8453125 13.8553125 -15.6875 12.6875 C-14.95288806 9.81583516 -14.3283935 8.76957906 -12 7 C-11.34 7 -10.68 7 -10 7 C-9.5978125 6.1028125 -9.5978125 6.1028125 -9.1875 5.1875 C-6.76780696 0.73017072 -5.14601456 -0.41724442 0 0 Z " fill="#F5C76B" transform="translate(237,16)"/>
<path d="M0 0 C-0.33 0.99 -0.66 1.98 -1 3 C2.08809695 4.76462683 3.23312136 5 7 5 C7.66 5 8.32 5 9 5 C9 5.99 9 6.98 9 8 C9.66 8 10.32 8 11 8 C11 8.66 11 9.32 11 10 C12.32 10.33 13.64 10.66 15 11 C15 11.66 15 12.32 15 13 C16.32 13 17.64 13 19 13 C19 13.66 19 14.32 19 15 C19.66 15 20.32 15 21 15 C21.061875 15.61875 21.12375 16.2375 21.1875 16.875 C21.828919 19.27761141 21.828919 19.27761141 24.5625 20.25 C25.366875 20.4975 26.17125 20.745 27 21 C27 20.01 27 19.02 27 18 C28.65 18.33 30.3 18.66 32 19 C32 19.66 32 20.32 32 21 C32.94875 20.814375 33.8975 20.62875 34.875 20.4375 C38 20 38 20 40 21 C40 21.66 40 22.32 40 23 C40.65226562 23.12117188 41.30453125 23.24234375 41.9765625 23.3671875 C46.79433744 24.29094966 51.38543226 25.30485267 56 27 C56.92683594 27.33515625 57.85367188 27.6703125 58.80859375 28.015625 C61.54134689 29.00428983 64.27143381 29.9998494 67 31 C67 31.66 67 32.32 67 33 C68.85625 33.185625 68.85625 33.185625 70.75 33.375 C73.8762197 33.75746305 76.28879237 34.30549523 79 36 C79.33 35.67 79.66 35.34 80 35 C87.57532058 35.29135848 97.53798941 37.53798941 103 43 C88.22126261 46.36492199 69.8030862 44.05398518 56 38 C54.27244506 37.30846002 52.54328646 36.6209119 50.8125 35.9375 C50.00683594 35.61136719 49.20117188 35.28523438 48.37109375 34.94921875 C44.93533713 33.57378406 41.47036348 32.28531981 38 31 C38 30.34 38 29.68 38 29 C36.98808594 28.90460938 35.97617187 28.80921875 34.93359375 28.7109375 C30.73891254 27.9528124 27.81196904 26.62415447 24.0625 24.625 C20.23399996 22.6189674 16.46471758 20.677181 12.375 19.25 C9.33415945 18.12376276 7.5041613 16.9675553 5 15 C2.85266073 14.29485154 2.85266073 14.29485154 1 14 C1 13.34 1 12.68 1 12 C-0.32 11.67 -1.64 11.34 -3 11 C-3 10.34 -3 9.68 -3 9 C-3.56589844 8.89042969 -4.13179688 8.78085937 -4.71484375 8.66796875 C-5.44832031 8.50941406 -6.18179687 8.35085938 -6.9375 8.1875 C-8.03384766 7.96126953 -8.03384766 7.96126953 -9.15234375 7.73046875 C-9.76207031 7.48941406 -10.37179687 7.24835938 -11 7 C-11.33 6.01 -11.66 5.02 -12 4 C-13.32 4.33 -14.64 4.66 -16 5 C-15.67 3.68 -15.34 2.36 -15 1 C-14.34 1 -13.68 1 -13 1 C-13 1.66 -13 2.32 -13 3 C-7.65110393 3.3731788 -4.64558811 0 0 0 Z " fill="#FAB997" transform="translate(315,346)"/>
<path d="M0 0 C2.31 1.98 4.62 3.96 7 6 C4.70425265 10.59149469 3.58805743 12.23905582 -1 14.4375 C-4.00423084 16.00220356 -5.24267613 17.16875599 -7 20 C-8.65 19.67 -10.3 19.34 -12 19 C-12.495 20.485 -12.495 20.485 -13 22 C-15.0390625 23.82421875 -15.0390625 23.82421875 -17.625 25.6875 C-18.46289062 26.31011719 -19.30078125 26.93273437 -20.1640625 27.57421875 C-23 29 -23 29 -26.23828125 28.90625 C-31.52387414 29.03797817 -35.02835198 31.25157901 -39.5625 33.8125 C-41.20945609 34.71517101 -42.85658752 35.61752219 -44.50390625 36.51953125 C-45.66297485 37.16257202 -45.66297485 37.16257202 -46.84545898 37.81860352 C-51.13656969 40.17154229 -55.45449368 42.20293936 -60 44 C-62.27636632 45.02354601 -64.54828244 46.05597027 -66.81640625 47.09765625 C-69 48 -69 48 -71.1171875 48.47265625 C-74.2139319 49.34000167 -75.85715989 51.69232604 -78 54 C-78.5775 54.495 -79.155 54.99 -79.75 55.5 C-81.4852797 57.58233564 -81.73316798 59.33167982 -82 62 C-80.91636621 65.25090137 -79.87103456 66.26540436 -77.03125 68.08203125 C-72.93113642 69.9349672 -68.42839021 70.40114296 -64 71 C-64 71.66 -64 72.32 -64 73 C-63.14277344 72.98839844 -62.28554688 72.97679687 -61.40234375 72.96484375 C-59.68724609 72.95130859 -59.68724609 72.95130859 -57.9375 72.9375 C-56.81214844 72.92589844 -55.68679687 72.91429687 -54.52734375 72.90234375 C-51 73 -51 73 -47.73046875 73.48046875 C-43.88554939 74.0159392 -40.14987696 74.17822183 -36.2746582 74.29077148 C-26.64472818 74.57049918 -17.26939787 75.35266185 -7.75268555 76.83666992 C1.46241906 78.26973965 10.7153619 79.15231553 20 80 C20 80.66 20 81.32 20 82 C12.34712195 82.29061562 4.92050304 81.76361881 -2.6875 81 C-10.42588952 80.22490557 -18.03263601 79.80736851 -25.80932617 79.98632812 C-28.86172109 80.05045246 -31.07052825 79.97649058 -34 79 C-35.61420283 78.8642292 -37.23266927 78.77592677 -38.8515625 78.71875 C-39.78484375 78.68136719 -40.718125 78.64398438 -41.6796875 78.60546875 C-43.65103168 78.53487685 -45.62238597 78.46456655 -47.59375 78.39453125 C-48.52445313 78.35714844 -49.45515625 78.31976563 -50.4140625 78.28125 C-51.2695166 78.25095703 -52.1249707 78.22066406 -53.00634766 78.18945312 C-55 78 -55 78 -56 77 C-59.36209065 76.71530684 -62.72414001 76.55104937 -66.09375 76.37890625 C-67.0528125 76.25386719 -68.011875 76.12882812 -69 76 C-69.495 75.01 -69.495 75.01 -70 74 C-72.38126168 73.45693214 -72.38126168 73.45693214 -75.1875 73.125 C-79.99428666 72.31970717 -83.28601429 71.3330641 -87 68 C-88.87480544 64.67648127 -89.64513044 61.77862114 -89 58 C-86.45584144 54.46644644 -83.83055603 51.15468776 -80 49 C-77.25 48.8125 -77.25 48.8125 -75 49 C-75 48.01 -75 47.02 -75 46 C-73.453125 45.814375 -73.453125 45.814375 -71.875 45.625 C-68.37883154 45.06110186 -65.31602373 44.21317941 -62 43 C-62 42.01 -62 41.02 -62 40 C-60.515 39.505 -60.515 39.505 -59 39 C-58.34 39.33 -57.68 39.66 -57 40 C-56.505 39.01 -56.505 39.01 -56 38 C-54.69917932 37.27192872 -53.35356962 36.62455704 -52 36 C-50.77177757 35.3900499 -49.54539915 34.77638036 -48.3203125 34.16015625 C-39.9453125 29.97265625 -39.9453125 29.97265625 -37.90771484 28.95874023 C-36.21545864 28.10828079 -34.53635218 27.23176694 -32.859375 26.3515625 C-29.96820326 24.98497039 -27.21886909 24.10483233 -24.125 23.3125 C-23.15820312 23.06113281 -22.19140625 22.80976563 -21.1953125 22.55078125 C-20.47085938 22.36902344 -19.74640625 22.18726563 -19 22 C-19 21.34 -19 20.68 -19 20 C-18.50113281 19.79246094 -18.00226563 19.58492188 -17.48828125 19.37109375 C-10.42439678 16.34009126 -3.72848512 12.70222674 3 9 C2.01 6.03 1.02 3.06 0 0 Z " fill="#F8D1A7" transform="translate(107,240)"/>
<path d="M0 0 C0.33 0 0.66 0 1 0 C0.51219859 4.79671389 -0.15195267 8.54294469 -2 13 C-2.32868264 14.5174182 -2.6396931 16.03872137 -2.9375 17.5625 C-3.69695518 21.17584534 -4.72311624 23.08558879 -7 26 C-7.81592181 28.13736039 -8.4932267 30.30215225 -9.1796875 32.484375 C-10.94563299 37.89994117 -12.83362316 43.25043473 -16 48 C-16 48.99 -16 49.98 -16 51 C-16.85895693 55.81015878 -18.92813377 60.39220065 -21.625 64.4375 C-23.14706637 67.27407823 -23.27791021 69.59265764 -23.55859375 72.7578125 C-24.2707342 76.3752339 -26.06871594 79.3756529 -27.80078125 82.6015625 C-28.86892745 84.73785489 -29.55557243 86.63058831 -30.125 88.9375 C-31 92 -31 92 -32.5625 93.5 C-34.33196655 95.05143379 -34.33196655 95.05143379 -34.4375 98.25 C-34.99987122 101.99914144 -36.1719162 103.93836482 -38.1328125 107.1015625 C-39.70464329 110.54259747 -39.79024335 114.32643632 -39 118 C-38.01718065 119.01689042 -37.01667383 120.0169566 -36 121 C-35.67 122.32 -35.34 123.64 -35 125 C-31.37 125.33 -27.74 125.66 -24 126 C-24.33 126.99 -24.66 127.98 -25 129 C-23.68 129.66 -22.36 130.32 -21 131 C-24.00492294 133.27645677 -25.49118132 134.02880106 -29.3125 133.8125 C-30.529375 133.544375 -31.74625 133.27625 -33 133 C-33.7115625 132.86207031 -34.423125 132.72414063 -35.15625 132.58203125 C-40.73338608 131.39992089 -40.73338608 131.39992089 -43 128 C-44.48832197 116.98397758 -42.87230269 108.14053965 -38.41748047 98.04736328 C-34.85080397 89.95201781 -32.29796132 81.67093337 -29.79101562 73.1953125 C-26.81441855 63.17347831 -23.37647583 53.49553059 -19 44 C-18.08295142 41.97933995 -17.16629149 39.95850348 -16.25 37.9375 C-15.50037868 36.29149416 -14.75051581 34.64559818 -14 33 C-13.34 33 -12.68 33 -12 33 C-11.87625 32.113125 -11.7525 31.22625 -11.625 30.3125 C-10.83649467 26.13342176 -10.03680191 23.03680191 -7 20 C-6.42883482 18.07192534 -6.42883482 18.07192534 -6.0625 15.875 C-5.14580451 11.35019108 -3.71333501 7.28333754 -2 3 C-1.34 3 -0.68 3 0 3 C0 2.01 0 1.02 0 0 Z " fill="#F9D1AF" transform="translate(121,330)"/>
<path d="M0 0 C0.74958984 0.10441406 1.49917969 0.20882812 2.27148438 0.31640625 C4.11999204 0.5754328 5.96647432 0.84883966 7.8125 1.125 C7.8125 1.785 7.8125 2.445 7.8125 3.125 C8.73869141 3.28935547 8.73869141 3.28935547 9.68359375 3.45703125 C15.58962501 4.5627266 21.16447559 6.07861435 26.8125 8.125 C26.4825 8.785 26.1525 9.445 25.8125 10.125 C20.0625 10.25 20.0625 10.25 17.8125 9.125 C17.8125 8.465 17.8125 7.805 17.8125 7.125 C16.1625 7.455 14.5125 7.785 12.8125 8.125 C12.8125 7.465 12.8125 6.805 12.8125 6.125 C12.1525 6.125 11.4925 6.125 10.8125 6.125 C10.4825 7.115 10.1525 8.105 9.8125 9.125 C9.77125 8.50625 9.73 7.8875 9.6875 7.25 C8.9599716 4.82245517 8.9599716 4.82245517 6.0625 3.75 C2.43060204 3.05155808 0.95717369 3.23819578 -2.1875 5.125 C-2.5175 6.115 -2.8475 7.105 -3.1875 8.125 C-2.28 7.91875 -1.3725 7.7125 -0.4375 7.5 C2.92277897 7.1122755 4.05325815 7.32088033 6.8125 9.125 C6.420625 9.66125 6.02875 10.1975 5.625 10.75 C4.4522267 13.27978206 4.4522267 13.27978206 6.25 16.1875 C6.765625 17.156875 7.28125 18.12625 7.8125 19.125 C7.4825 20.115 7.1525 21.105 6.8125 22.125 C1.57977367 20.48541242 -3.33946636 18.73547965 -8.1875 16.125 C-8.8475 17.115 -9.5075 18.105 -10.1875 19.125 C-9.38588209 21.79645537 -9.38588209 21.79645537 -8.1875 24.125 C-9.5075 24.125 -10.8275 24.125 -12.1875 24.125 C-12.3828125 22.07421875 -12.578125 20.0234375 -12.7734375 17.97265625 C-12.97839844 17.05806641 -12.97839844 17.05806641 -13.1875 16.125 C-13.8475 15.795 -14.5075 15.465 -15.1875 15.125 C-15.60764232 9.03293639 -15.25465472 6.00558567 -11.1875 1.125 C-7.23979304 -1.50680464 -4.44769851 -0.6758948 0 0 Z " fill="#F9E3AC" transform="translate(33.1875,105.875)"/>
<path d="M0 0 C-0.33 0.99 -0.66 1.98 -1 3 C2.08809695 4.76462683 3.23312136 5 7 5 C7.66 5 8.32 5 9 5 C9 5.99 9 6.98 9 8 C9.66 8 10.32 8 11 8 C11 8.66 11 9.32 11 10 C12.32 10.33 13.64 10.66 15 11 C15 11.66 15 12.32 15 13 C16.32 13 17.64 13 19 13 C19 13.66 19 14.32 19 15 C19.66 15 20.32 15 21 15 C21.08378906 15.61617188 21.16757812 16.23234375 21.25390625 16.8671875 C21.80537975 19.1267992 21.80537975 19.1267992 23.77734375 20.1953125 C24.84662109 20.65550781 24.84662109 20.65550781 25.9375 21.125 C28.53209987 22.26455203 29.96549847 22.96549847 32 25 C32.845625 25.33 33.69125 25.66 34.5625 26 C37 27 37 27 38 29 C32.64015213 28.49474046 28.80027437 27.15110242 24.0625 24.625 C20.23399996 22.6189674 16.46471758 20.677181 12.375 19.25 C9.33415945 18.12376276 7.5041613 16.9675553 5 15 C2.85266073 14.29485154 2.85266073 14.29485154 1 14 C1 13.34 1 12.68 1 12 C-0.32 11.67 -1.64 11.34 -3 11 C-3 10.34 -3 9.68 -3 9 C-3.56589844 8.89042969 -4.13179688 8.78085937 -4.71484375 8.66796875 C-5.44832031 8.50941406 -6.18179687 8.35085938 -6.9375 8.1875 C-8.03384766 7.96126953 -8.03384766 7.96126953 -9.15234375 7.73046875 C-9.76207031 7.48941406 -10.37179687 7.24835938 -11 7 C-11.33 6.01 -11.66 5.02 -12 4 C-13.32 4.33 -14.64 4.66 -16 5 C-15.67 3.68 -15.34 2.36 -15 1 C-14.34 1 -13.68 1 -13 1 C-13 1.66 -13 2.32 -13 3 C-7.65110393 3.3731788 -4.64558811 0 0 0 Z " fill="#F9C389" transform="translate(315,346)"/>
<path d="M0 0 C1.0725 0.33 2.145 0.66 3.25 1 C6.99731601 2.1717751 6.99731601 2.1717751 11 2 C18.62540162 2.415931 28.47830798 4.47830798 34 10 C20.20107075 13.14183271 2.12181778 11.34592576 -11 6 C-10.34 5.01 -9.68 4.02 -9 3 C-7 3 -5 3 -3 3 C-1.12109566 1.62493901 -1.12109566 1.62493901 0 0 Z " fill="#FAB99B" transform="translate(384,379)"/>
<path d="M0 0 C6.45175851 0.06822889 12.90296795 0.15846719 19.35424805 0.26245117 C21.53875149 0.29525152 23.72333059 0.32341505 25.90795898 0.34643555 C39.78264511 0.49644941 53.15404153 1.43157437 66.84921265 3.66397095 C71.31630209 4.36188831 75.81129522 4.78101175 80.3125 5.1875 C81.60124023 5.3102832 81.60124023 5.3102832 82.91601562 5.43554688 C84.9435962 5.62811039 86.97173178 5.81481977 89 6 C89 6.66 89 7.32 89 8 C81.34712195 8.29061562 73.92050304 7.76361881 66.3125 7 C58.57411048 6.22490557 50.96736399 5.80736851 43.19067383 5.98632812 C40.13827891 6.05045246 37.92947175 5.97649058 35 5 C33.38579717 4.8642292 31.76733073 4.77592677 30.1484375 4.71875 C28.74851562 4.66267578 28.74851562 4.66267578 27.3203125 4.60546875 C25.34896832 4.53487685 23.37761403 4.46456655 21.40625 4.39453125 C20.01019531 4.33845703 20.01019531 4.33845703 18.5859375 4.28125 C17.30275635 4.23581055 17.30275635 4.23581055 15.99365234 4.18945312 C14 4 14 4 13 3 C10.81707226 2.76518307 8.62796826 2.58636677 6.4375 2.4375 C4.64119141 2.31181641 4.64119141 2.31181641 2.80859375 2.18359375 C1.88175781 2.12300781 0.95492187 2.06242187 0 2 C0 1.34 0 0.68 0 0 Z " fill="#FAE7B3" transform="translate(38,314)"/>
<path d="M0 0 C-4.99797817 3.18053156 -10.14206262 5.55877872 -15.875 7.0625 C-16.90625 7.371875 -17.9375 7.68125 -19 8 C-19.33 8.66 -19.66 9.32 -20 10 C-24.29251282 12.10245526 -28.45095828 13.46099327 -33.09765625 14.53125 C-35.20722133 15.01789148 -35.20722133 15.01789148 -38 16.0625 C-41.68689397 17.21465437 -45.15981732 17.56643099 -49 18 C-49.763125 18.2475 -50.52625 18.495 -51.3125 18.75 C-52.1478125 18.87375 -52.1478125 18.87375 -53 19 C-54.75 17.5625 -54.75 17.5625 -56 16 C-55.34 14.68 -54.68 13.36 -54 12 C-54 12.99 -54 13.98 -54 15 C-51.36 14.67 -48.72 14.34 -46 14 C-46 13.34 -46 12.68 -46 12 C-36.01895958 8.25196144 -25.93989697 4.99186236 -15.6875 2.0625 C-14.05083374 1.58478149 -14.05083374 1.58478149 -12.38110352 1.09741211 C-11.35170654 0.80874268 -10.32230957 0.52007324 -9.26171875 0.22265625 C-7.88439575 -0.16780884 -7.88439575 -0.16780884 -6.47924805 -0.56616211 C-3.92322067 -1.01343544 -2.42874888 -0.83773208 0 0 Z " fill="#FAE8BE" transform="translate(341,144)"/>
<path d="M0 0 C3.95244236 1.31748079 4.47117866 3.02577298 6.5625 6.5625 C7.65535519 8.40742759 8.78976669 10.22985153 10 12 C10.66 12 11.32 12 12 12 C12 13.32 12 14.64 12 16 C12.66 16 13.32 16 14 16 C14.2475 16.70125 14.495 17.4025 14.75 18.125 C15.96475048 21.15078961 15.96475048 21.15078961 18.125 24.1875 C20 27 20 27 20 29 C20.66 29.33 21.32 29.66 22 30 C22 30.66 22 31.32 22 32 C23.485 32.495 23.485 32.495 25 33 C25.75 35 25.75 35 26 37 C25.67 37.33 25.34 37.66 25 38 C26.65 38.33 28.3 38.66 30 39 C30.33 41.31 30.66 43.62 31 46 C31.99 46.33 32.98 46.66 34 47 C35.1875 49.5625 35.1875 49.5625 36 52 C38.97 51.505 38.97 51.505 42 51 C42 51.66 42 52.32 42 53 C41.34 53 40.68 53 40 53 C39.67 54.65 39.34 56.3 39 58 C39.5775 58.020625 40.155 58.04125 40.75 58.0625 C44.42933295 59.59555539 45.27283347 62.48398243 47 66 C47 66.66 47 67.32 47 68 C47.66 68 48.32 68 49 68 C51.61046448 70.84777943 53.42676569 73.13066838 54 77 C44.51409227 69.94637631 37.28792535 59.4931441 30.8125 49.6875 C29.20074175 47.09265597 29.20074175 47.09265597 27.53125 45.59375 C25.80001995 43.7918575 24.83016064 42.03106791 23.6875 39.8125 C21.95170988 36.57235844 20.08790422 33.69837852 17.8125 30.8125 C15.98664379 28.46562926 14.99640983 26.98899013 14.0625 24.125 C12.6642959 20.01263501 10.30511583 16.95278254 7.75390625 13.46484375 C6 11 6 11 4.40234375 8.25390625 C3.19883997 5.88142866 3.19883997 5.88142866 1 5 C0.375 2.4375 0.375 2.4375 0 0 Z " fill="#FADBAF" transform="translate(24,131)"/>
<path d="M0 0 C3 1 3 1 4.171875 2.625 C5.28594505 5.82006883 5.26431456 8.6217641 5.25 12 C5.25515625 13.216875 5.2603125 14.43375 5.265625 15.6875 C5.01981559 18.75288791 4.6149234 20.43662952 3 23 C2.34 23 1.68 23 1 23 C0.773125 23.515625 0.54625 24.03125 0.3125 24.5625 C-1.4975553 27.92403127 -3.73996404 30.92911144 -6 34 C-7.32 33.34 -8.64 32.68 -10 32 C-10 31.34 -10 30.68 -10 30 C-11.98 30.99 -11.98 30.99 -14 32 C-14.25 26.375 -14.25 26.375 -12 23 C-11.34 23 -10.68 23 -10 23 C-9.67 22.01 -9.34 21.02 -9 20 C-8.67 20.99 -8.34 21.98 -8 23 C-7.34 22.34 -6.68 21.68 -6 21 C-2 17 -2 17 2 13 C1.319375 12.4225 0.63875 11.845 -0.0625 11.25 C-1.0215625 10.13625 -1.0215625 10.13625 -2 9 C-1.75 6.75 -1.75 6.75 -1 5 C-0.34 5 0.32 5 1 5 C1 4.01 1 3.02 1 2 C0.34 1.67 -0.32 1.34 -1 1 C-0.67 0.67 -0.34 0.34 0 0 Z " fill="#F7D38C" transform="translate(473,120)"/>
<path d="M0 0 C4.19162145 0.95264124 5.7207791 1.63260408 8.375 5.125 C8.91125 6.07375 9.4475 7.0225 10 8 C8.02 8.99 8.02 8.99 6 10 C5.34 8.02 4.68 6.04 4 4 C1.71305777 3.49620971 1.71305777 3.49620971 -1 4 C-3.3703068 6.4481947 -3.3703068 6.4481947 -4.73046875 8.34765625 C-6 10 -6 10 -8.8125 12.625 C-11.4516505 14.95221376 -11.4516505 14.95221376 -11 19 C-11 22.13640178 -11.44159263 23.18605333 -12.875 25.875 C-14.0755259 28.1788261 -15.15832944 30.3958236 -16.125 32.8125 C-17 35 -17 35 -19 38 C-19.22673554 40.00822906 -19.45190279 42.0167132 -19.65625 44.02734375 C-20.13194503 46.75718454 -21.56451087 48.64579782 -23 51 C-23.58181384 53.19985085 -24.01905481 55.40874291 -24.4609375 57.640625 C-25.28528006 61.24861706 -26.62686464 64.56716161 -28 68 C-29.03335057 64.81391082 -28.93857633 62.8377288 -28.0390625 59.62890625 C-27.81476563 58.80712891 -27.59046875 57.98535156 -27.359375 57.13867188 C-27.11703125 56.28853516 -26.8746875 55.43839844 -26.625 54.5625 C-26.15763292 52.87664017 -25.69145189 51.190451 -25.2265625 49.50390625 C-25.0090332 48.72031738 -24.79150391 47.93672852 -24.56738281 47.12939453 C-23.9386549 44.76977111 -23.42465871 42.40475337 -23 40 C-22.34 40 -21.68 40 -21 40 C-20.97873047 39.14341797 -20.97873047 39.14341797 -20.95703125 38.26953125 C-20.50007527 30.50127962 -18.04558263 24.10374299 -15 17 C-14.45260956 15.62390284 -13.90575231 14.24759349 -13.359375 12.87109375 C-12.78377487 11.49633596 -12.20569036 10.12261546 -11.625 8.75 C-11.36960449 8.09362549 -11.11420898 7.43725098 -10.85107422 6.76098633 C-10.0390625 4.921875 -10.0390625 4.921875 -8 2 C-4.3359375 1.140625 -4.3359375 1.140625 -1 1 C-0.67 0.67 -0.34 0.34 0 0 Z " fill="#FCD0C7" transform="translate(233,13)"/>
<path d="M0 0 C2 1 2 1 2.88671875 3.6171875 C3.15097656 4.69226562 3.41523438 5.76734375 3.6875 6.875 C3.95949219 7.94492187 4.23148438 9.01484375 4.51171875 10.1171875 C5 13 5 13 4 16 C3.34 15.34 2.68 14.68 2 14 C-1.65875889 20.56342244 -3.93787671 26.54928441 -5 34 C-6.175625 34.1546875 -6.175625 34.1546875 -7.375 34.3125 C-10.33045181 34.77595022 -10.33045181 34.77595022 -12 38 C-12.30723267 40.1482619 -12.30723267 40.1482619 -12.375 42.4375 C-12.75418493 46.71194835 -13.74356338 48.13828297 -17 51 C-18.26784124 54.13350717 -18.26784124 54.13350717 -19 57 C-19.33 57 -19.66 57 -20 57 C-20.5497272 51.36529617 -18.95047835 48.61012242 -16 44 C-16.33 43.67 -16.66 43.34 -17 43 C-16.58925787 38.72828187 -16.06209233 34.79859114 -14 31 C-12 29.625 -12 29.625 -10 29 C-9.34 29.33 -8.68 29.66 -8 30 C-5.98440772 23.53866871 -4.22613877 17.05098757 -2.6484375 10.46875 C-2 8 -2 8 -1 6 C-0.64080679 4.00448218 -0.30503431 2.00451121 0 0 Z " fill="#FAB477" transform="translate(231,56)"/>
<path d="M0 0 C0.886875 0.309375 1.77375 0.61875 2.6875 0.9375 C5.46709155 1.8290671 8.13136375 2.49377007 11 3 C11 3.66 11 4.32 11 5 C6.64705882 9 6.64705882 9 3 9 C2.67 9.99 2.34 10.98 2 12 C1.34 12 0.68 12 0 12 C-0.33 12.99 -0.66 13.98 -1 15 C-2.75289056 16.62909091 -4.57573177 18.18404347 -6.4375 19.6875 C-7.92056641 20.89986328 -7.92056641 20.89986328 -9.43359375 22.13671875 C-12 24 -12 24 -14 24 C-14.268125 24.639375 -14.53625 25.27875 -14.8125 25.9375 C-16 28 -16 28 -19 29 C-18.38722388 26.03824877 -17.74627478 24.61941217 -16 22 C-14.68 22 -13.36 22 -12 22 C-12 21.34 -12 20.68 -12 20 C-10.5 18.375 -10.5 18.375 -9 17 C-9.99 16.67 -10.98 16.34 -12 16 C-11.09522263 14.53426066 -10.17565859 13.07764244 -9.25 11.625 C-8.73953125 10.81289062 -8.2290625 10.00078125 -7.703125 9.1640625 C-5.9326665 6.91444321 -4.63092581 6.04093152 -2 5 C-2 4.01 -2 3.02 -2 2 C-1.34 2 -0.68 2 0 2 C0 1.34 0 0.68 0 0 Z " fill="#F7C77B" transform="translate(399,198)"/>
<path d="M0 0 C0.80824219 0.11085938 1.61648437 0.22171875 2.44921875 0.3359375 C3.37154297 0.47902344 3.37154297 0.47902344 4.3125 0.625 C1.09610346 2.37065111 -1.00763404 2.829437 -4.6875 2.625 C-5.0175 5.265 -5.3475 7.905 -5.6875 10.625 C-4.3675 10.295 -3.0475 9.965 -1.6875 9.625 C-1.584375 10.264375 -1.48125 10.90375 -1.375 11.5625 C-1.148125 12.243125 -0.92125 12.92375 -0.6875 13.625 C0.3025 13.955 1.2925 14.285 2.3125 14.625 C2.3125 15.615 2.3125 16.605 2.3125 17.625 C0.0025 17.295 -2.3075 16.965 -4.6875 16.625 C-5.3475 17.615 -6.0075 18.605 -6.6875 19.625 C-5.88588209 22.29645537 -5.88588209 22.29645537 -4.6875 24.625 C-6.0075 24.625 -7.3275 24.625 -8.6875 24.625 C-8.8828125 22.57421875 -9.078125 20.5234375 -9.2734375 18.47265625 C-9.47839844 17.55806641 -9.47839844 17.55806641 -9.6875 16.625 C-10.3475 16.295 -11.0075 15.965 -11.6875 15.625 C-12.10764232 9.53293639 -11.75465472 6.50558567 -7.6875 1.625 C-4.33422361 -0.61051759 -3.78006343 -0.54783528 0 0 Z " fill="#FAE3B5" transform="translate(29.6875,105.375)"/>
<path d="M0 0 C-4.75 3.875 -4.75 3.875 -7 5 C-7 4.34 -7 3.68 -7 3 C-7.886875 3.185625 -8.77375 3.37125 -9.6875 3.5625 C-13 4 -13 4 -15.4375 3.4375 C-18.97937672 2.83278934 -21.57492233 3.99609792 -25 5 C-30.38704221 5.27864011 -34.90566825 4.69811058 -40 3 C-40 2.34 -40 1.68 -40 1 C-6.56100977 -3.70521311 -6.56100977 -3.70521311 0 0 Z " fill="#F8D49A" transform="translate(473,119)"/>
<path d="M0 0 C1.03139845 3.75429036 1.21296253 7.095687 1 11 C0.01 12.485 0.01 12.485 -1 14 C-0.34 14.33 0.32 14.66 1 15 C-1.97 20.445 -1.97 20.445 -5 26 C-0.79819816 25.4260261 -0.79819816 25.4260261 1 22 C1.61875 22.185625 2.2375 22.37125 2.875 22.5625 C5.04160178 23.23686176 5.04160178 23.23686176 7 22 C5.87548273 24.9719385 4.77706209 27.33440687 3 30 C2.34 30 1.68 30 1 30 C1.33 28.68 1.66 27.36 2 26 C1.34 26 0.68 26 0 26 C0 28.31 0 30.62 0 33 C-2.31 32.67 -4.62 32.34 -7 32 C-7 31.34 -7 30.68 -7 30 C-7.639375 29.87625 -8.27875 29.7525 -8.9375 29.625 C-9.9584375 29.315625 -9.9584375 29.315625 -11 29 C-11.33 28.34 -11.66 27.68 -12 27 C-10.68 27 -9.36 27 -8 27 C-6.31747552 22.35623242 -4.88994986 17.80205642 -4 12.9375 C-3.15486235 8.36086475 -1.75453318 4.30658144 0 0 Z " fill="#F5C778" transform="translate(189,132)"/>
<path d="M0 0 C0.66 0 1.32 0 2 0 C2.66 1.98 3.32 3.96 4 6 C7.63 6.33 11.26 6.66 15 7 C14.67 7.99 14.34 8.98 14 10 C15.32 10.66 16.64 11.32 18 12 C14.99507706 14.27645677 13.50881868 15.02880106 9.6875 14.8125 C8.470625 14.544375 7.25375 14.27625 6 14 C4.93265625 13.79310547 4.93265625 13.79310547 3.84375 13.58203125 C-1.73338608 12.39992089 -1.73338608 12.39992089 -4 9 C-4.125 5.8125 -4.125 5.8125 -4 3 C-3.34 3 -2.68 3 -2 3 C-1.67 3.66 -1.34 4.32 -1 5 C-0.67 3.35 -0.34 1.7 0 0 Z " fill="#F7D890" transform="translate(82,449)"/>
<path d="M0 0 C0.66 0 1.32 0 2 0 C2 3.63 2 7.26 2 11 C2.66 11 3.32 11 4 11 C5.4606285 13.64738916 6 14.89448334 6 18 C7.65 17.67 9.3 17.34 11 17 C11.33 17.66 11.66 18.32 12 19 C14.11846285 19.68729254 14.11846285 19.68729254 16.5625 20.125 C17.38878906 20.29257812 18.21507812 20.46015625 19.06640625 20.6328125 C19.70449219 20.75398438 20.34257812 20.87515625 21 21 C20.67 22.32 20.34 23.64 20 25 C11.26596169 25.45790104 11.26596169 25.45790104 7.0625 23.9375 C4.80949038 21.82103642 3.8809891 19.85578992 2.828125 16.97265625 C1.57649327 13.99117501 -0.2676009 11.44310215 -2.109375 8.796875 C-3 7 -3 7 -2 4 C-1.34 4 -0.68 4 0 4 C0 2.68 0 1.36 0 0 Z " fill="#FAD4B7" transform="translate(259,473)"/>
<path d="M0 0 C0.66 0.99 1.32 1.98 2 3 C1.40832031 3.51949219 0.81664062 4.03898438 0.20703125 4.57421875 C-4.61530811 8.83014957 -9.30321435 13.10345245 -13.6875 17.8125 C-15 19 -15 19 -17 19 C-17 19.66 -17 20.32 -17 21 C-17.66 21 -18.32 21 -19 21 C-19.226875 21.61875 -19.45375 22.2375 -19.6875 22.875 C-21.38862958 25.6292098 -23.05376154 25.82150461 -26 27 C-27.34410262 29.01735205 -27.34410262 29.01735205 -28 31 C-28.66 31 -29.32 31 -30 31 C-30 31.66 -30 32.32 -30 33 C-32 32 -32 32 -33 29 C-31.6875 27.5 -31.6875 27.5 -30 26 C-29.01 26 -28.02 26 -27 26 C-26.67 25.01 -26.34 24.02 -26 23 C-23 21 -23 21 -20 21 C-19.690625 20.1646875 -19.690625 20.1646875 -19.375 19.3125 C-17.42316968 16.02987629 -15.05769006 14.29326754 -12 12 C-11.34 12 -10.68 12 -10 12 C-10 11.34 -10 10.68 -10 10 C-9.34 10 -8.68 10 -8 10 C-8 9.34 -8 8.68 -8 8 C-7.34 8 -6.68 8 -6 8 C-5.67 7.01 -5.34 6.02 -5 5 C-3.37347684 3.29413425 -1.70993434 1.6222454 0 0 Z " fill="#F9D49D" transform="translate(371,231)"/>
<path d="M0 0 C3.3718936 2.24792907 3.67665103 3.13469264 5 6.8125 C6.375194 10.47792093 7.92050011 13.67280018 10 17 C10 17.66 10 18.32 10 19 C10.66 19 11.32 19 12 19 C12.32871094 19.89138672 12.32871094 19.89138672 12.6640625 20.80078125 C14.93953901 26.74846984 17.65876761 32.2271594 20.828125 37.75 C22 40 22 40 22 42 C23.485 41.505 23.485 41.505 25 41 C24.34 42.32 23.68 43.64 23 45 C21.86863414 43.44210317 20.74517679 41.87846143 19.625 40.3125 C18.99851563 39.44238281 18.37203125 38.57226562 17.7265625 37.67578125 C16 35 16 35 14.921875 32.27734375 C14.14515884 29.78714216 14.14515884 29.78714216 11.625 28.25 C6.29480749 23.68126357 4.79457995 16.5801265 3 10 C2.47101272 8.55778591 1.92904113 7.12027613 1.375 5.6875 C0 2 0 2 0 0 Z " fill="#F9CAAE" transform="translate(231,432)"/>
<path d="M0 0 C1.76923828 0.01353516 1.76923828 0.01353516 3.57421875 0.02734375 C4.47785156 0.03894531 5.38148438 0.05054688 6.3125 0.0625 C3.29680843 2.60389266 0.75387408 3.6896142 -3.0625 4.625 C-6.06758479 5.38522675 -8.94933544 6.15491251 -11.875 7.1875 C-15.48092999 8.30934488 -18.93258425 8.6385579 -22.6875 9.0625 C-23.450625 9.31 -24.21375 9.5575 -25 9.8125 C-25.8353125 9.93625 -25.8353125 9.93625 -26.6875 10.0625 C-28.4375 8.625 -28.4375 8.625 -29.6875 7.0625 C-29.0275 5.7425 -28.3675 4.4225 -27.6875 3.0625 C-27.6875 4.0525 -27.6875 5.0425 -27.6875 6.0625 C-27.048125 5.8975 -26.40875 5.7325 -25.75 5.5625 C-21.71163348 4.90317485 -17.76942742 4.98246221 -13.6875 5.0625 C-13.6875 4.4025 -13.6875 3.7425 -13.6875 3.0625 C-12.3675 3.0625 -11.0475 3.0625 -9.6875 3.0625 C-9.6875 2.4025 -9.6875 1.7425 -9.6875 1.0625 C-6.26517028 -0.07827657 -3.60076783 -0.03565117 0 0 Z " fill="#F7D787" transform="translate(314.6875,152.9375)"/>
<path d="M0 0 C3.97937771 0.14039552 7.95844294 0.28831319 11.9375 0.4375 C13.05447266 0.47681641 14.17144531 0.51613281 15.32226562 0.55664062 C21.59258717 0.79568514 27.77604143 1.20575166 34 2 C35.54166667 2.16666667 37.08333333 2.33333333 38.625 2.5 C42.43030326 2.92132532 46.21332892 3.43602771 50 4 C49.67 4.66 49.34 5.32 49 6 C47.22925083 6.02705729 45.45838289 6.04642195 43.6875 6.0625 C42.70136719 6.07410156 41.71523437 6.08570313 40.69921875 6.09765625 C38 6 38 6 35 5 C33.38579717 4.8642292 31.76733073 4.77592677 30.1484375 4.71875 C28.74851562 4.66267578 28.74851562 4.66267578 27.3203125 4.60546875 C25.34896832 4.53487685 23.37761403 4.46456655 21.40625 4.39453125 C20.01019531 4.33845703 20.01019531 4.33845703 18.5859375 4.28125 C17.30275635 4.23581055 17.30275635 4.23581055 15.99365234 4.18945312 C14 4 14 4 13 3 C10.81707226 2.76518307 8.62796826 2.58636677 6.4375 2.4375 C4.64119141 2.31181641 4.64119141 2.31181641 2.80859375 2.18359375 C1.88175781 2.12300781 0.95492187 2.06242187 0 2 C0 1.34 0 0.68 0 0 Z " fill="#FCF2D8" transform="translate(38,314)"/>
<path d="M0 0 C0.99 0.33 1.98 0.66 3 1 C1.7934375 1.37125 1.7934375 1.37125 0.5625 1.75 C-0.283125 2.1625 -1.12875 2.575 -2 3 C-2.15629883 3.630271 -2.31259766 4.26054199 -2.47363281 4.90991211 C-3.11709325 7.46495145 -3.91860788 8.10936788 -5.984375 9.69140625 C-6.59023438 10.16126953 -7.19609375 10.63113281 -7.8203125 11.11523438 C-8.45710938 11.59283203 -9.09390625 12.07042969 -9.75 12.5625 C-10.37132812 13.04396484 -10.99265625 13.52542969 -11.6328125 14.02148438 C-14.97203653 16.58226061 -18.3320557 18.92103157 -22 21 C-22 17 -22 17 -20.1875 14.75 C-18 13 -18 13 -15 13 C-14.7525 12.21625 -14.505 11.4325 -14.25 10.625 C-12.81895569 7.61980696 -12.05254489 7.11001632 -9 6 C-8.01 5.67 -7.02 5.34 -6 5 C-4.64631404 3.68733482 -3.31200404 2.35432675 -2 1 C-1.34 0.67 -0.68 0.34 0 0 Z " fill="#F8D89B" transform="translate(454,163)"/>
<path d="M0 0 C6.23514476 -0.56683134 9.36817067 0.48069442 14.6640625 3.70703125 C17.74463322 5.4121632 20.8445455 6.25292803 24.2265625 7.17578125 C29.60361071 8.7737491 34.78883157 10.93350217 40 13 C39.67 13.99 39.34 14.98 39 16 C38.01 15.67 37.02 15.34 36 15 C36 14.34 36 13.68 36 13 C35.29875 12.87625 34.5975 12.7525 33.875 12.625 C30.81160474 11.95904451 27.96928235 11.00843551 25 10 C23.33491152 9.49476924 21.66810518 8.99517965 20 8.5 C16.30833659 7.40142343 12.64486466 6.24692738 9 5 C9 4.34 9 3.68 9 3 C6.36 3 3.72 3 1 3 C0.67 2.01 0.34 1.02 0 0 Z " fill="#F8BC77" transform="translate(346,364)"/>
<path d="M0 0 C1.03382813 0.00902344 2.06765625 0.01804687 3.1328125 0.02734375 C4.03773438 0.03894531 4.94265625 0.05054687 5.875 0.0625 C6.865 0.0625 7.855 0.0625 8.875 0.0625 C10.55736471 0.68849617 12.2273962 1.35002268 13.875 2.0625 C10.42693384 4.1279675 7.41765412 4.46931861 3.4375 4.75 C1.76880859 4.87955078 1.76880859 4.87955078 0.06640625 5.01171875 C-4.02354168 5.07679748 -7.26463036 4.34928988 -11.125 3.0625 C-11.125 2.4025 -11.125 1.7425 -11.125 1.0625 C-7.34765864 0.17740341 -3.87519892 -0.04370525 0 0 Z " fill="#F8D09A" transform="translate(444.125,118.9375)"/>
<path d="M0 0 C0.99 0 1.98 0 3 0 C3.33 0.99 3.66 1.98 4 3 C5.0828125 2.8453125 5.0828125 2.8453125 6.1875 2.6875 C10.15176326 3.1279737 11.46535287 5.04291169 14 8 C14.33 8.66 14.66 9.32 15 10 C14.01 10 13.02 10 12 10 C12 10.99 12 11.98 12 13 C10.02 12.34 8.04 11.68 6 11 C6 9.68 6 8.36 6 7 C4.02 6.34 2.04 5.68 0 5 C0 4.34 0 3.68 0 3 C-0.66 2.67 -1.32 2.34 -2 2 C-1.34 2 -0.68 2 0 2 C0 1.34 0 0.68 0 0 Z " fill="#F9BC82" transform="translate(330,354)"/>
<path d="M0 0 C0.268125 0.556875 0.53625 1.11375 0.8125 1.6875 C1.63055433 3.28055316 2.51020933 4.84295455 3.4375 6.375 C7.4711621 13.15155233 9.2076518 19.17214625 10 27 C8.5 25.75 8.5 25.75 7 24 C7 22.68 7 21.36 7 20 C6.34 20 5.68 20 5 20 C5 18.68 5 17.36 5 16 C4.01 16 3.02 16 2 16 C1.67 14.68 1.34 13.36 1 12 C0.34 12 -0.32 12 -1 12 C-1 11.01 -1 10.02 -1 9 C-0.34 9 0.32 9 1 9 C1 8.01 1 7.02 1 6 C0.34 6 -0.32 6 -1 6 C-1.042721 4.33388095 -1.04063832 2.66617115 -1 1 C-0.67 0.67 -0.34 0.34 0 0 Z " fill="#FCD6BA" transform="translate(243,21)"/>
<path d="M0 0 C0.33 0.66 0.66 1.32 1 2 C0.34 2 -0.32 2 -1 2 C-1.33 3.65 -1.66 5.3 -2 7 C-1.13375 7.0309375 -1.13375 7.0309375 -0.25 7.0625 C3.42933295 8.59555539 4.27283347 11.48398243 6 15 C6 15.66 6 16.32 6 17 C6.66 17 7.32 17 8 17 C10.61046448 19.84777943 12.42676569 22.13066838 13 26 C5.16781704 20.17606908 -1.88255125 12.35234625 -5 3 C-3 1 -3 1 0 0 Z " fill="#FAD2A9" transform="translate(65,182)"/>
<path d="M0 0 C1.32 0 2.64 0 4 0 C4 0.66 4 1.32 4 2 C8.79131294 1.36642824 8.79131294 1.36642824 13.5 0.3125 C16.25315707 -0.03164463 18.08263522 0.53199749 20.6875 1.38671875 C26.0039943 2.79666741 31.55343367 3.28990675 37 4 C37 4.33 37 4.66 37 5 C24.8538131 5.30535107 13.06091089 4.38403895 1 3 C0.67 2.01 0.34 1.02 0 0 Z " fill="#F6D680" transform="translate(42,310)"/>
<path d="M0 0 C0.80824219 0.11085938 1.61648437 0.22171875 2.44921875 0.3359375 C3.37154297 0.47902344 3.37154297 0.47902344 4.3125 0.625 C0.85035351 2.67664237 -0.28139235 2.625 -4.6875 2.625 C-5.0175 5.925 -5.3475 9.225 -5.6875 12.625 C-8.1625 11.635 -8.1625 11.635 -10.6875 10.625 C-10.3575 12.275 -10.0275 13.925 -9.6875 15.625 C-10.3475 15.295 -11.0075 14.965 -11.6875 14.625 C-12.14425183 8.91560212 -11.30855556 6.07372541 -7.6875 1.625 C-4.33422361 -0.61051759 -3.78006343 -0.54783528 0 0 Z " fill="#FBECC8" transform="translate(29.6875,105.375)"/>
<path d="M0 0 C0 3 0 3 -2 5.25 C-4.54275024 8.74628157 -4.39222397 10.76398112 -4 15 C-3.24849977 18.27773504 -3.24849977 18.27773504 0 20 C0 20.66 0 21.32 0 22 C0.66 22.33 1.32 22.66 2 23 C-1.50952175 22.35008857 -4.12397322 21.11917763 -7 19 C-8.84258758 15.66579391 -9.64407254 12.77242489 -9 9 C-6.39348419 5.37983915 -3.71549766 2.47699844 0 0 Z " fill="#FAE1BF" transform="translate(27,289)"/>
<path d="M0 0 C0.33 0.99 0.66 1.98 1 3 C3.00016466 4.20882096 3.00016466 4.20882096 5 5 C4.01 6.32 3.02 7.64 2 9 C2.99 9 3.98 9 5 9 C4.34 10.65 3.68 12.3 3 14 C1.68 13.34 0.36 12.68 -1 12 C-1 11.34 -1 10.68 -1 10 C-2.98 10.99 -2.98 10.99 -5 12 C-5.25 6.375 -5.25 6.375 -3 3 C-2.34 3 -1.68 3 -1 3 C-0.67 2.01 -0.34 1.02 0 0 Z " fill="#F6D084" transform="translate(464,140)"/>
<path d="M0 0 C1.95901454 0.11382653 3.9172338 0.24141125 5.875 0.375 C6.96554688 0.44460938 8.05609375 0.51421875 9.1796875 0.5859375 C12 1 12 1 14 3 C14 4.32 14 5.64 14 7 C14.99 7.33 15.98 7.66 17 8 C14.65479276 7.70684909 12.33240796 7.37633599 10 7 C8.92298828 6.83371094 8.92298828 6.83371094 7.82421875 6.6640625 C5.6875 6.25 5.6875 6.25 2 5 C0.76953125 2.421875 0.76953125 2.421875 0 0 Z " fill="#F9E4AB" transform="translate(78,456)"/>
<path d="M0 0 C1.03139845 3.75429036 1.21296253 7.095687 1 11 C0.01 12.485 0.01 12.485 -1 14 C-0.34 14.33 0.32 14.66 1 15 C0.04600922 16.79398267 -0.91334026 18.58511655 -1.875 20.375 C-2.40867188 21.37273437 -2.94234375 22.37046875 -3.4921875 23.3984375 C-5 26 -5 26 -7 28 C-6.06628406 18.28935418 -3.65000773 9.03811439 0 0 Z " fill="#F7CBA4" transform="translate(189,132)"/>
<path d="M0 0 C5.45769811 -0.11138159 10.61509359 0.08342019 16 1 C16 1.66 16 2.32 16 3 C16.85722656 2.98839844 17.71445312 2.97679687 18.59765625 2.96484375 C24.50860552 2.9181959 30.18156704 2.91750084 36 4 C36 4.33 36 4.66 36 5 C26.86829409 5.28536581 18.00643537 5.33142763 9 3.625 C8.32453125 3.49891357 7.6490625 3.37282715 6.953125 3.24291992 C3.89179061 2.60922686 2.25469734 2.25469734 0 0 Z " fill="#F8E1A3" transform="translate(27,310)"/>
<path d="M0 0 C0.66 0.33 1.32 0.66 2 1 C1.91266424 2.60517097 1.80447776 4.20921662 1.6875 5.8125 C1.62949219 6.70582031 1.57148437 7.59914063 1.51171875 8.51953125 C0.93259808 11.32671925 0.2779858 12.30697846 -2 14 C-2.66 14 -3.32 14 -4 14 C-4 15.32 -4 16.64 -4 18 C-4.66 18 -5.32 18 -6 18 C-6 19.32 -6 20.64 -6 22 C-6.99 22.33 -7.98 22.66 -9 23 C-8.35746509 20.1955702 -7.50878686 17.61699169 -6.40625 14.9609375 C-6.09816406 14.21585937 -5.79007812 13.47078125 -5.47265625 12.703125 C-5.15167969 11.93484375 -4.83070312 11.1665625 -4.5 10.375 C-4.17902344 9.59898437 -3.85804687 8.82296875 -3.52734375 8.0234375 C-1.16477997 2.32955995 -1.16477997 2.32955995 0 0 Z " fill="#F9D8B4" transform="translate(107,363)"/>
<path d="M0 0 C4.5376408 1.21741582 7.64358624 3.04911399 11.32421875 5.83203125 C13.4132554 7.28802649 15.63116628 8.09426946 18 9 C18.33 9.66 18.66 10.32 19 11 C13.46640844 10.4943565 9.43969425 9.04383132 4.5625 6.4375 C3.60827148 5.9434668 3.60827148 5.9434668 2.63476562 5.43945312 C1.08505424 4.63546752 -0.45818322 3.81902334 -2 3 C-1.34 2.67 -0.68 2.34 0 2 C0 1.34 0 0.68 0 0 Z " fill="#FAC6A1" transform="translate(334,364)"/>
<path d="M0 0 C2.33944736 0.28730055 4.6739143 0.61936779 7 1 C7.33 1.99 7.66 2.98 8 4 C9.11375 4.144375 10.2275 4.28875 11.375 4.4375 C15 5 15 5 17 6 C17.625 8.0625 17.625 8.0625 18 10 C13.41374391 9.45401713 10.04825353 8.20013779 6 6 C5.21625 5.608125 4.4325 5.21625 3.625 4.8125 C3.08875 4.544375 2.5525 4.27625 2 4 C2 3.34 2 2.68 2 2 C1.01 1.67 0.02 1.34 -1 1 C-0.67 0.67 -0.34 0.34 0 0 Z " fill="#FBD4B2" transform="translate(314,356)"/>
<path d="M0 0 C-1.23547723 3.7064317 -2.59582655 4.46184802 -5.75 6.6875 C-6.61109375 7.31011719 -7.4721875 7.93273437 -8.359375 8.57421875 C-11.20937899 10.11305227 -12.81662565 10.30345115 -16 10 C-16.33 9.34 -16.66 8.68 -17 8 C-13.71195019 5.08772731 -11.40114397 3.50298788 -7 3 C-7 2.34 -7 1.68 -7 1 C-4.53721199 -0.231394 -2.7204945 -0.07159196 0 0 Z " fill="#F9CDA8" transform="translate(95,259)"/>
<path d="M0 0 C0 0.66 0 1.32 0 2 C-0.56509277 2.14622803 -1.13018555 2.29245605 -1.71240234 2.44311523 C-4.26720749 3.10559865 -6.82110773 3.77150654 -9.375 4.4375 C-10.70917969 4.78264648 -10.70917969 4.78264648 -12.0703125 5.13476562 C-13.34648437 5.46831055 -13.34648437 5.46831055 -14.6484375 5.80859375 C-15.82672119 6.11494751 -15.82672119 6.11494751 -17.02880859 6.42749023 C-19.05189813 6.95094933 -19.05189813 6.95094933 -21 8 C-22.54023996 8.06950541 -24.08334988 8.08452357 -25.625 8.0625 C-26.85089844 8.04896484 -26.85089844 8.04896484 -28.1015625 8.03515625 C-29.04128906 8.01775391 -29.04128906 8.01775391 -30 8 C-27.39833216 6.26555478 -25.89074682 5.54674671 -22.98046875 4.74609375 C-21.81741211 4.42415039 -21.81741211 4.42415039 -20.63085938 4.09570312 C-19.82455078 3.87849609 -19.01824219 3.66128906 -18.1875 3.4375 C-16.99543945 3.10588867 -16.99543945 3.10588867 -15.77929688 2.76757812 C-10.54951212 1.33576774 -5.45645988 0 0 0 Z " fill="#FAE2B4" transform="translate(371,135)"/>
<path d="M0 0 C1.65 0.33 3.3 0.66 5 1 C4.608125 1.70125 4.21625 2.4025 3.8125 3.125 C2.70830758 7.03214241 4.11564419 8.53278531 6 12 C5.67 12.99 5.34 13.98 5 15 C2.03 14.01 -0.94 13.02 -4 12 C-3.34 11.13375 -2.68 10.2675 -2 9.375 C0.12695385 5.78576537 0.38790972 4.07305202 0 0 Z " fill="#F8DB95" transform="translate(35,113)"/>
<path d="M0 0 C0.33 0 0.66 0 1 0 C1.05416741 2.72943537 1.09375225 5.45778564 1.125 8.1875 C1.15013672 9.34088867 1.15013672 9.34088867 1.17578125 10.51757812 C1.2134986 14.91164917 0.79410822 17.93687257 -1 22 C-1.43269889 24.42792152 -1.80504963 26.86716505 -2.125 29.3125 C-2.29257812 30.56675781 -2.46015625 31.82101562 -2.6328125 33.11328125 C-2.75398438 34.06589844 -2.87515625 35.01851563 -3 36 C-3.33 36 -3.66 36 -4 36 C-3.60995187 23.74710872 -2.44632245 12.01621277 0 0 Z " fill="#FADEAD" transform="translate(286,455)"/>
<path d="M0 0 C-1.30055604 3.90166812 -3.25628887 5.11853757 -6.4375 7.6875 C-7.42621094 8.49574219 -8.41492188 9.30398437 -9.43359375 10.13671875 C-12 12 -12 12 -14 12 C-14.268125 12.639375 -14.53625 13.27875 -14.8125 13.9375 C-16 16 -16 16 -19 17 C-18.38722388 14.03824877 -17.74627478 12.61941217 -16 10 C-14.68 10 -13.36 10 -12 10 C-12 9.34 -12 8.68 -12 8 C-10.1875 5.875 -10.1875 5.875 -8 4 C-7.01 4 -6.02 4 -5 4 C-5 3.34 -5 2.68 -5 2 C-2 0 -2 0 0 0 Z " fill="#F9D5A1" transform="translate(399,210)"/>
<path d="M0 0 C0.30747168 5.22701855 -0.29342392 7.62783864 -3 12 C-3.5848616 14.19958819 -4.01895759 16.40825187 -4.4609375 18.640625 C-5.28528006 22.24861706 -6.62686464 25.56716161 -8 29 C-9.03335057 25.81391082 -8.93857633 23.8377288 -8.0390625 20.62890625 C-7.81476563 19.80712891 -7.59046875 18.98535156 -7.359375 18.13867188 C-7.11703125 17.28853516 -6.8746875 16.43839844 -6.625 15.5625 C-6.15763292 13.87664017 -5.69145189 12.190451 -5.2265625 10.50390625 C-5.00645508 9.71902832 -4.78634766 8.93415039 -4.55957031 8.12548828 C-3.93325493 5.86382815 -3.93325493 5.86382815 -3.4609375 2.96484375 C-3.30882812 2.31644531 -3.15671875 1.66804688 -3 1 C-1 0 -1 0 0 0 Z " fill="#FAC8C0" transform="translate(213,52)"/>
<path d="M0 0 C0.66 0.33 1.32 0.66 2 1 C2 1.66 2 2.32 2 3 C2.87398438 3.37511719 2.87398438 3.37511719 3.765625 3.7578125 C6.29893083 5.16618882 7.83518977 6.70651832 9.75 8.875 C10.36359375 9.55304688 10.9771875 10.23109375 11.609375 10.9296875 C13 13 13 13 13 17 C12.34 17 11.68 17 11 17 C9.4921875 15.3203125 9.4921875 15.3203125 7.875 13.125 C7.33617187 12.40570313 6.79734375 11.68640625 6.2421875 10.9453125 C5 9 5 9 5 7 C4.01 7 3.02 7 2 7 C1.67 6.01 1.34 5.02 1 4 C0.34 3.34 -0.32 2.68 -1 2 C-0.67 1.34 -0.34 0.68 0 0 Z " fill="#F6DA8E" transform="translate(376,312)"/>
<path d="M0 0 C0.79921875 0.01804688 1.5984375 0.03609375 2.421875 0.0546875 C3.02515625 0.07789063 3.6284375 0.10109375 4.25 0.125 C4.25 0.455 4.25 0.785 4.25 1.125 C3.64671875 1.23457031 3.0434375 1.34414062 2.421875 1.45703125 C1.22304688 1.69486328 1.22304688 1.69486328 0 1.9375 C-0.78890625 2.08832031 -1.5778125 2.23914063 -2.390625 2.39453125 C-4.79408367 2.97930622 -4.79408367 2.97930622 -6.53125 4.5625 C-9.7603575 6.83651937 -13.18630272 7.44666943 -17 8.3125 C-17.74507813 8.48974609 -18.49015625 8.66699219 -19.2578125 8.84960938 C-21.08652271 9.28334193 -22.91800779 9.70534597 -24.75 10.125 C-21.77567195 6.8181942 -19.03139025 6.28605498 -14.75 5.125 C-12.05496598 3.85674869 -9.44900088 2.52899635 -6.87109375 1.0390625 C-4.41043561 -0.02133162 -2.66535505 -0.0783928 0 0 Z " fill="#F6D37F" transform="translate(345.75,142.875)"/>
<path d="M0 0 C0.33 0 0.66 0 1 0 C0.76083941 6.09859495 0.76083941 6.09859495 -1.33203125 8.578125 C-5.37338362 12 -5.37338362 12 -8 12 C-8 11.34 -8 10.68 -8 10 C-7.34 10 -6.68 10 -6 10 C-6 7.69 -6 5.38 -6 3 C-5.195625 2.690625 -4.39125 2.38125 -3.5625 2.0625 C-1.10919595 1.23664655 -1.10919595 1.23664655 0 0 Z " fill="#F6BE7D" transform="translate(210,113)"/>
<path d="M0 0 C2.625 -0.1875 2.625 -0.1875 5 0 C5 0.66 5 1.32 5 2 C5.54140625 2.13277344 6.0828125 2.26554687 6.640625 2.40234375 C9.3532415 3.08948005 12.05106023 3.82350459 14.75 4.5625 C16.22726562 4.96662109 16.22726562 4.96662109 17.734375 5.37890625 C18.48203125 5.58386719 19.2296875 5.78882813 20 6 C20 6.33 20 6.66 20 7 C12.14120137 6.64775091 5.34937998 5.86501253 -2 3 C-1.34 2.01 -0.68 1.02 0 0 Z " fill="#FBC3AF" transform="translate(375,382)"/>
<path d="M0 0 C2 3 2 3 1.609375 5.55859375 C1.32578125 6.50863281 1.0421875 7.45867187 0.75 8.4375 C0.47671875 9.38496094 0.2034375 10.33242188 -0.078125 11.30859375 C-0.88887691 13.67557709 -1.81507591 15.80165399 -3 18 C-3.66 18 -4.32 18 -5 18 C-5.33 19.65 -5.66 21.3 -6 23 C-7.70296886 19.59406229 -5.75279591 16.10092488 -4.6875 12.625 C-4.46126953 11.85671875 -4.23503906 11.0884375 -4.00195312 10.296875 C-2.91473613 6.67490714 -1.76248375 3.35796079 0 0 Z " fill="#FBE0C9" transform="translate(97,386)"/>
<path d="M0 0 C-1.69179328 2.04219706 -2.63727666 2.91793306 -5.26171875 3.51171875 C-6.06222656 3.56972656 -6.86273438 3.62773437 -7.6875 3.6875 C-8.89986328 3.78611328 -8.89986328 3.78611328 -10.13671875 3.88671875 C-10.75160156 3.92410156 -11.36648438 3.96148437 -12 4 C-12 4.66 -12 5.32 -12 6 C-13.32 6 -14.64 6 -16 6 C-16 6.66 -16 7.32 -16 8 C-17.98 8 -19.96 8 -22 8 C-22 7.34 -22 6.68 -22 6 C-19.27411167 4.99018911 -16.54487736 3.99196692 -13.8125 3 C-13.04357422 2.71382812 -12.27464844 2.42765625 -11.48242188 2.1328125 C-7.54177643 0.71215062 -4.25848319 -0.40963365 0 0 Z " fill="#FBEFD1" transform="translate(317,150)"/>
<path d="M0 0 C0 0.66 0 1.32 0 2 C-1.60410742 2.4533347 -3.20824546 2.90656122 -4.8125 3.359375 C-6.33978651 3.80665176 -7.86032513 4.27734165 -9.375 4.765625 C-14.95898617 6.54552059 -20.15537603 7.52865936 -26 8 C-26.33 7.34 -26.66 6.68 -27 6 C-22.32798795 4.79431947 -17.78503708 4.90617574 -13 5 C-13 4.34 -13 3.68 -13 3 C-11.68 3 -10.36 3 -9 3 C-9 2.34 -9 1.68 -9 1 C-5.8035914 -0.06546953 -3.34252724 -0.07427838 0 0 Z " fill="#F9E1AD" transform="translate(314,153)"/>
<path d="M0 0 C4.19162145 0.95264124 5.7207791 1.63260408 8.375 5.125 C8.91125 6.07375 9.4475 7.0225 10 8 C8.02 8.99 8.02 8.99 6 10 C5.34 8.02 4.68 6.04 4 4 C0.04 4 -3.92 4 -8 4 C-8 3.34 -8 2.68 -8 2 C-6.865625 1.855625 -5.73125 1.71125 -4.5625 1.5625 C-1.19222799 1.38828522 -1.19222799 1.38828522 0 0 Z " fill="#FDDCCF" transform="translate(233,13)"/>
<path d="M0 0 C2.12468332 3.62391874 2.78068001 7.27351503 3.5625 11.375 C3.81128906 12.66148438 4.06007813 13.94796875 4.31640625 15.2734375 C4.91033691 18.51120807 5.47190009 21.75092815 6 25 C4 24 4 24 3.2980957 22.3293457 C2.62315071 19.99364942 1.95687367 17.65684522 1.3125 15.3125 C1.07466797 14.50876953 0.83683594 13.70503906 0.59179688 12.87695312 C-0.70567261 8.2235655 -1.2778306 4.79380086 0 0 Z " fill="#FAC9A3" transform="translate(261,80)"/>
<path d="M0 0 C10.55808656 3.07517084 10.55808656 3.07517084 15 5 C14.34 5.66 13.68 6.32 13 7 C13 6.34 13 5.68 13 5 C12.608125 5.495 12.21625 5.99 11.8125 6.5 C9.44908285 8.45593143 7.98564997 8.24207973 5 8 C5 5 5 5 6 3 C4.02 2.34 2.04 1.68 0 1 C0 0.67 0 0.34 0 0 Z " fill="#F9BD8D" transform="translate(398,381)"/>
<path d="M0 0 C1.66666667 1.66666667 3.33333333 3.33333333 5 5 C5.763125 5.680625 6.52625 6.36125 7.3125 7.0625 C9 9 9 9 9 13 C8.01 13 7.02 13 6 13 C5.67 11.68 5.34 10.36 5 9 C4.34 9 3.68 9 3 9 C0.56839395 5.63316085 0 4.26649636 0 0 Z " fill="#F7DD96" transform="translate(392,329)"/>
<path d="M0 0 C0.33 0 0.66 0 1 0 C1 3.3 1 6.6 1 10 C0.34 10 -0.32 10 -1 10 C-0.96519531 10.61488281 -0.93039063 11.22976562 -0.89453125 11.86328125 C-0.86746094 12.67152344 -0.84039062 13.47976562 -0.8125 14.3125 C-0.76029297 15.51326172 -0.76029297 15.51326172 -0.70703125 16.73828125 C-1.06198392 19.47851584 -1.89366282 20.29171079 -4 22 C-4.18208643 16.71949367 -3.8727372 12.99396588 -2 8 C-1.28518577 5.34359578 -0.64555823 2.67445553 0 0 Z " fill="#F9C6B1" transform="translate(201,87)"/>
<path d="M0 0 C3.1913079 1.59565395 4.11784709 4.84661121 5.625 7.9375 C5.94984375 8.58396484 6.2746875 9.23042969 6.609375 9.89648438 C9 14.73297991 9 14.73297991 9 17 C9.99 16.67 10.98 16.34 12 16 C11.34 17.32 10.68 18.64 10 20 C0 6.1369863 0 6.1369863 0 0 Z " fill="#F9C8AD" transform="translate(244,457)"/>
<path d="M0 0 C0.33 0 0.66 0 1 0 C0.52060632 4.71403788 0.03165952 8.66579301 -2 13 C-2.66 13 -3.32 13 -4 13 C-4.33 14.32 -4.66 15.64 -5 17 C-6.37095624 13.30962722 -5.60010967 11.29116165 -4.0625 7.75 C-3.68222656 6.85796875 -3.30195312 5.9659375 -2.91015625 5.046875 C-2.60980469 4.37140625 -2.30945313 3.6959375 -2 3 C-1.34 3 -0.68 3 0 3 C0 2.01 0 1.02 0 0 Z " fill="#FAE0B9" transform="translate(121,330)"/>
<path d="M0 0 C-2.05233685 2.2477975 -3.00667261 3.0022242 -6 4 C-8.232269 3.91382274 -10.46238486 3.76077759 -12.6875 3.5625 C-13.86699219 3.46066406 -15.04648437 3.35882813 -16.26171875 3.25390625 C-17.61716797 3.12822266 -17.61716797 3.12822266 -19 3 C-19 2.67 -19 2.34 -19 2 C-12.53205867 0.48766299 -6.64409958 -0.21432579 0 0 Z " fill="#F8D2A3" transform="translate(430,122)"/>
<path d="M0 0 C2.625 0.9375 2.625 0.9375 5 2 C5 2.66 5 3.32 5 4 C5.66 4 6.32 4 7 4 C8.625 5.375 8.625 5.375 10 7 C10 7.66 10 8.32 10 9 C10.66 9.33 11.32 9.66 12 10 C8.51669784 9.35494404 5.90567134 8.01782732 3 6 C3 5.34 3 4.68 3 4 C2.360625 3.87625 1.72125 3.7525 1.0625 3.625 C0.381875 3.41875 -0.29875 3.2125 -1 3 C-1.33 2.34 -1.66 1.68 -2 1 C-1.34 0.67 -0.68 0.34 0 0 Z " fill="#F7D374" transform="translate(126,218)"/>
<path d="M0 0 C2.97 0.495 2.97 0.495 6 1 C6 1.66 6 2.32 6 3 C1.64705882 7 1.64705882 7 -2 7 C-2.33 7.99 -2.66 8.98 -3 10 C-3.66 10 -4.32 10 -5 10 C-4.34 8.68 -3.68 7.36 -3 6 C-2.34 6 -1.68 6 -1 6 C-1.33 5.01 -1.66 4.02 -2 3 C-1.34 2.01 -0.68 1.02 0 0 Z " fill="#F8CD87" transform="translate(404,200)"/>
<path d="M0 0 C2.31 1.98 4.62 3.96 7 6 C6.67 6.99 6.34 7.98 6 9 C4.02 9 2.04 9 0 9 C-1.125 3.375 -1.125 3.375 0 0 Z " fill="#F7C88C" transform="translate(275,485)"/>
<path d="M0 0 C0.99 0.99 1.98 1.98 3 3 C2.57316368 4.27445454 2.13302798 5.54445882 1.6875 6.8125 C1.44386719 7.52019531 1.20023437 8.22789062 0.94921875 8.95703125 C0 11 0 11 -3 14 C-2.67 10.7 -2.34 7.4 -2 4 C-1.34 4 -0.68 4 0 4 C0 2.68 0 1.36 0 0 Z M-4 14 C-3.34 14.66 -2.68 15.32 -2 16 C-2.99 16.495 -2.99 16.495 -4 17 C-4 16.01 -4 15.02 -4 14 Z " fill="#F7C598" transform="translate(103,377)"/>
<path d="M0 0 C2.31 0 4.62 0 7 0 C6.62875 0.556875 6.2575 1.11375 5.875 1.6875 C4.70484137 4.05716353 4.70484137 4.05716353 5.875 6.75 C6.24625 7.4925 6.6175 8.235 7 9 C5.68 9 4.36 9 3 9 C2.8046875 6.94921875 2.609375 4.8984375 2.4140625 2.84765625 C2.27742188 2.23792969 2.14078125 1.62820312 2 1 C1.34 0.67 0.68 0.34 0 0 Z " fill="#F9DDA4" transform="translate(18,121)"/>
<path d="M0 0 C1.32 0.33 2.64 0.66 4 1 C3.24172908 2.17487036 2.46792245 3.33972592 1.6875 4.5 C1.25824219 5.1496875 0.82898437 5.799375 0.38671875 6.46875 C-0.07089844 6.9740625 -0.52851562 7.479375 -1 8 C-1.99 8 -2.98 8 -4 8 C-5.125 4.25 -5.125 4.25 -4 2 C-3.01 2 -2.02 2 -1 2 C-0.67 1.34 -0.34 0.68 0 0 Z " fill="#F6D47C" transform="translate(45,123)"/>
<path d="M0 0 C0.33 0.66 0.66 1.32 1 2 C-2.59054233 5.88975419 -6.73898882 8.89732195 -11 12 C-11.66 11.67 -12.32 11.34 -13 11 C-9.0299782 6.78185183 -4.69159716 3.38772897 0 0 Z " fill="#F8DFA3" transform="translate(136,431)"/>
<path d="M0 0 C1.48400777 2.35695352 2.01570001 3.68599981 1.875 6.5 C0.82028447 9.51347295 -0.75985447 10.75985447 -3 13 C-4.26784124 16.13350717 -4.26784124 16.13350717 -5 19 C-5.33 19 -5.66 19 -6 19 C-6.51511433 13.59129957 -5.03296673 11.37104029 -2 7 C-1.14724535 4.68069477 -0.57827213 2.40946719 0 0 Z " fill="#F8BA71" transform="translate(217,94)"/>
<path d="M0 0 C2 1.25 2 1.25 4 3 C4 4.32 4 5.64 4 7 C5.32 7.33 6.64 7.66 8 8 C8 9.98 8 11.96 8 14 C3.25435774 11.45769165 1.72606482 6.83849021 0 2 C0 1.34 0 0.68 0 0 Z " fill="#FCE3D5" transform="translate(236,447)"/>
<path d="M0 0 C0.66 0.33 1.32 0.66 2 1 C2 4.96 2 8.92 2 13 C1.01 13.495 1.01 13.495 0 14 C0 13.01 0 12.02 0 11 C-0.66 11 -1.32 11 -2 11 C-2 9.68 -2 8.36 -2 7 C-1.34 7 -0.68 7 0 7 C-0.2784375 5.824375 -0.2784375 5.824375 -0.5625 4.625 C-1 2 -1 2 0 0 Z " fill="#F8D1A8" transform="translate(80,441)"/>
<path d="M0 0 C6.86214442 5.0940919 6.86214442 5.0940919 7.4375 8.875 C7.293125 9.57625 7.14875 10.2775 7 11 C7.66 11 8.32 11 9 11 C9 12.98 9 14.96 9 17 C8.67 17 8.34 17 8 17 C8 15.35 8 13.7 8 12 C7.01 11.67 6.02 11.34 5 11 C5 9.68 5 8.36 5 7 C4.360625 6.773125 3.72125 6.54625 3.0625 6.3125 C1 5 1 5 0.25 2.375 C0.1675 1.59125 0.085 0.8075 0 0 Z " fill="#F9E3A9" transform="translate(415,365)"/>
<path d="M0 0 C0.99 0 1.98 0 3 0 C3.33 0.99 3.66 1.98 4 3 C5.65 3 7.3 3 9 3 C9.33 3.66 9.66 4.32 10 5 C4.58461538 7.21538462 4.58461538 7.21538462 1.625 6.125 C1.08875 5.75375 0.5525 5.3825 0 5 C0 4.34 0 3.68 0 3 C-0.66 2.67 -1.32 2.34 -2 2 C-1.34 2 -0.68 2 0 2 C0 1.34 0 0.68 0 0 Z " fill="#F7BE75" transform="translate(330,354)"/>
<path d="M0 0 C1.258125 0.12375 2.51625 0.2475 3.8125 0.375 C4.87404297 0.47941406 4.87404297 0.47941406 5.95703125 0.5859375 C8 1 8 1 11 3 C12.65549531 3.38499891 14.3222433 3.72793135 16 4 C16 4.66 16 5.32 16 6 C10.03435204 5.49228528 5.36190101 3.61407872 0 1 C0 0.67 0 0.34 0 0 Z " fill="#F8DD9C" transform="translate(153,150)"/>
<path d="M0 0 C-0.95712891 0.30744141 -0.95712891 0.30744141 -1.93359375 0.62109375 C-2.75988281 0.89050781 -3.58617187 1.15992188 -4.4375 1.4375 C-5.67306641 1.83775391 -5.67306641 1.83775391 -6.93359375 2.24609375 C-8.96219588 2.82155494 -8.96219588 2.82155494 -10 4 C-12.33297433 4.04092937 -14.66705225 4.04241723 -17 4 C-14.60523231 1.14198216 -12.69509117 0.42735535 -9.0625 -0.25 C-8.20785156 -0.42015625 -7.35320312 -0.5903125 -6.47265625 -0.765625 C-4.00466983 -0.99955736 -2.33985901 -0.76004701 0 0 Z " fill="#F8DF9F" transform="translate(331,149)"/>
<path d="M0 0 C4.455 0.99 4.455 0.99 9 2 C9 2.33 9 2.66 9 3 C5.00204108 3.95619733 1.29196078 4.1039592 -2.8125 4.0625 C-3.97394531 4.05347656 -5.13539063 4.04445313 -6.33203125 4.03515625 C-7.21246094 4.02355469 -8.09289062 4.01195312 -9 4 C-9 3.67 -9 3.34 -9 3 C-6.36 3 -3.72 3 -1 3 C-0.67 2.01 -0.34 1.02 0 0 Z " fill="#FBC7AB" transform="translate(409,386)"/>
<path d="M0 0 C0.33 0 0.66 0 1 0 C1.17942163 3.94727588 1.09350689 6.5980513 -1 10 C-1.66 10 -2.32 10 -3 10 C-3.33 10.66 -3.66 11.32 -4 12 C-4.33 10.35 -4.66 8.7 -5 7 C-4.01 6.67 -3.02 6.34 -2 6 C-0.77479736 2.99152582 -0.77479736 2.99152582 0 0 Z " fill="#F9E3B4" transform="translate(477,133)"/>
<path d="M0 0 C3 1 3 1 4.1875 2.5625 C5.37040794 6.11122383 5.12443279 9.26701621 5 13 C4.67 13 4.34 13 4 13 C4 11.02 4 9.04 4 7 C3.01 7.33 2.02 7.66 1 8 C0 5 0 5 1 2 C0.34 1.67 -0.32 1.34 -1 1 C-0.67 0.67 -0.34 0.34 0 0 Z " fill="#F8D699" transform="translate(473,120)"/>
<path d="M0 0 C0.33 0.66 0.66 1.32 1 2 C1.556875 2.268125 2.11375 2.53625 2.6875 2.8125 C5.87684831 4.45027346 8.28763188 6.65750026 11 9 C8 10 8 10 5.875 9.25 C4 8 4 8 3 5 C2.01 5 1.02 5 0 5 C0 3.35 0 1.7 0 0 Z " fill="#F6DA8C" transform="translate(353,290)"/>
<path d="M0 0 C-1.50223584 4.20626034 -4.28550034 5.73900021 -8 8 C-8 4 -8 4 -6.25 1.75 C-4 0 -4 0 0 0 Z " fill="#F7CF88" transform="translate(440,176)"/>
<path d="M0 0 C0.66 0.33 1.32 0.66 2 1 C1.63495936 6.66442374 0.9445679 11.00703705 -2 16 C-2.33 16 -2.66 16 -3 16 C-2.40984815 10.49191603 -1.43336231 5.35121931 0 0 Z " fill="#F8D6AC" transform="translate(185,144)"/>
<path d="M0 0 C2.78750144 1.39375072 2.89266287 3.16244861 4 6 C4.66 6.66 5.32 7.32 6 8 C6.56520003 10.65537372 6.73788198 13.29144713 7 16 C6.34 15.34 5.68 14.68 5 14 C5 12.68 5 11.36 5 10 C4.34 10 3.68 10 3 10 C0.70366176 6.55549263 0.45983515 4.06187717 0 0 Z " fill="#FAEABD" transform="translate(408,348)"/>
<path d="M0 0 C1.65 0.33 3.3 0.66 5 1 C5 1.99 5 2.98 5 4 C2 6 2 6 -0.1875 5.625 C-0.785625 5.41875 -1.38375 5.2125 -2 5 C-1.34 3.35 -0.68 1.7 0 0 Z " fill="#F8D79F" transform="translate(333,263)"/>
<path d="M0 0 C0.99 0.33 1.98 0.66 3 1 C2.67 1.66 2.34 2.32 2 3 C2.66 3 3.32 3 4 3 C4 3.66 4 4.32 4 5 C2.081875 4.8453125 2.081875 4.8453125 0.125 4.6875 C-0.95394531 4.60048828 -0.95394531 4.60048828 -2.0546875 4.51171875 C-4 4 -4 4 -6 1 C-3.03 1.495 -3.03 1.495 0 2 C0 1.34 0 0.68 0 0 Z " fill="#F6CE88" transform="translate(183,158)"/>
<path d="M0 0 C8.57142857 -0.28571429 8.57142857 -0.28571429 12 2 C10.5 3.125 10.5 3.125 8 4 C5.2226918 3.57598348 2.70360217 2.81108065 0 2 C0 1.34 0 0.68 0 0 Z " fill="#FAE2B6" transform="translate(461,117)"/>
<path d="M0 0 C5.21979128 -0.1799928 9.07262981 0.02905192 14 2 C13.67 2.66 13.34 3.32 13 4 C7.25 4.125 7.25 4.125 5 3 C5 2.34 5 1.68 5 1 C3.35 1.33 1.7 1.66 0 2 C0 1.34 0 0.68 0 0 Z " fill="#F7DC92" transform="translate(46,112)"/>
<path d="M0 0 C3.55234558 0.60897353 6.7331874 1.45733849 10 3 C10.33 3.66 10.66 4.32 11 5 C6.6822542 4.49202991 2.96697886 3.80317221 -1 2 C-0.67 1.34 -0.34 0.68 0 0 Z " fill="#FBCCB2" transform="translate(342,370)"/>
<path d="M0 0 C-4.29456388 2.30440013 -8.31479085 3.78184562 -13 5 C-13 4.34 -13 3.68 -13 3 C-9.17472574 -0.67814833 -5.02286969 -1.6742899 0 0 Z " fill="#F7CB97" transform="translate(60,278)"/>
<path d="M0 0 C0.66 0.33 1.32 0.66 2 1 C0.78294994 2.01471171 -0.44926884 3.0112461 -1.6875 4 C-2.71423828 4.8353125 -2.71423828 4.8353125 -3.76171875 5.6875 C-6.38783056 7.22741897 -8.00603356 7.25168194 -11 7 C-11.33 6.34 -11.66 5.68 -12 5 C-11.07767578 4.70996094 -11.07767578 4.70996094 -10.13671875 4.4140625 C-9.32847656 4.15367187 -8.52023438 3.89328125 -7.6875 3.625 C-6.88699219 3.36976563 -6.08648437 3.11453125 -5.26171875 2.8515625 C-2.77275472 2.01168189 -2.77275472 2.01168189 0 0 Z " fill="#F7C190" transform="translate(90,262)"/>
<path d="M0 0 C0.33 1.32 0.66 2.64 1 4 C-1.64 3.67 -4.28 3.34 -7 3 C-7.33 2.01 -7.66 1.02 -8 0 C-5.13822943 -1.43088528 -3.06624227 -0.59991697 0 0 Z " fill="#F9E9BC" transform="translate(87,458)"/>
<path d="M0 0 C1.69752187 0.25245197 3.38471545 0.57645775 5.0625 0.9375 C5.98160156 1.13214844 6.90070313 1.32679688 7.84765625 1.52734375 C8.91306641 1.76130859 8.91306641 1.76130859 10 2 C8.68 2.99 7.36 3.98 6 5 C3.50638429 3.79618552 1.31856917 2.54571278 -1 1 C-0.67 0.67 -0.34 0.34 0 0 Z " fill="#F8BD7C" transform="translate(388,378)"/>
<path d="M0 0 C0.66 0.33 1.32 0.66 2 1 C0.41037341 5.03520597 -1.28232318 9.01811282 -3 13 C-3.66 13 -4.32 13 -5 13 C-4.54554036 11.58208592 -4.08625056 10.16571954 -3.625 8.75 C-3.24214844 7.56664062 -3.24214844 7.56664062 -2.8515625 6.359375 C-2.04826333 4.13372042 -1.10288338 2.09068328 0 0 Z " fill="#FBE3C9" transform="translate(107,363)"/>
<path d="M0 0 C2.31 1.98 4.62 3.96 7 6 C6.67 6.99 6.34 7.98 6 9 C3 8 3 8 1.3125 5.0625 C0 2 0 2 0 0 Z " fill="#FADCBA" transform="translate(107,240)"/>
<path d="M0 0 C2.14453125 0.26953125 2.14453125 0.26953125 4.8125 0.8125 C5.68519531 0.98394531 6.55789063 1.15539062 7.45703125 1.33203125 C9.866859 1.96502748 11.82627526 2.79913109 14 4 C11.87436897 3.88623383 9.7494739 3.75864369 7.625 3.625 C6.44164062 3.55539062 5.25828125 3.48578125 4.0390625 3.4140625 C1 3 1 3 -1 1 C-0.67 0.67 -0.34 0.34 0 0 Z " fill="#FDDED3" transform="translate(381,385)"/>
<path d="M0 0 C0.99 0.495 0.99 0.495 2 1 C2 1.66 2 2.32 2 3 C3.98075027 4.36176581 5.98079663 5.69593116 8 7 C8 7.33 8 7.66 8 8 C4.28400809 8.20086443 3.22791555 8.1519437 0 6 C-0.1875 2.875 -0.1875 2.875 0 0 Z " fill="#F6D38F" transform="translate(24,302)"/>
<path d="M0 0 C0.99 0.495 0.99 0.495 2 1 C2 1.66 2 2.32 2 3 C2.99 3 3.98 3 5 3 C5 3.66 5 4.32 5 5 C5.66 5.33 6.32 5.66 7 6 C6.34 7.32 5.68 8.64 5 10 C4.15801693 8.90241493 3.32669329 7.79664683 2.5 6.6875 C2.0359375 6.07261719 1.571875 5.45773438 1.09375 4.82421875 C0 3 0 3 0 0 Z " fill="#FBE0BD" transform="translate(39,155)"/>
<path d="M0 0 C2.2432954 2.88423694 4.36318083 5.72636167 6 9 C5.578125 11.15625 5.578125 11.15625 5 13 C4.15930585 11.39967863 3.32768495 9.79458829 2.5 8.1875 C1.80390625 6.84751953 1.80390625 6.84751953 1.09375 5.48046875 C0 3 0 3 0 0 Z " fill="#FAD2B4" transform="translate(216,400)"/>
<path d="M0 0 C1.21236328 0.01353516 1.21236328 0.01353516 2.44921875 0.02734375 C3.37154297 0.04474609 3.37154297 0.04474609 4.3125 0.0625 C4.3125 0.3925 4.3125 0.7225 4.3125 1.0625 C-5.09752278 3.17411731 -5.09752278 3.17411731 -9.6875 4.0625 C-6.9209694 -0.0872959 -4.6801992 -0.06782897 0 0 Z " fill="#F8D892" transform="translate(345.6875,142.9375)"/>
<path d="M0 0 C0.66 0 1.32 0 2 0 C2 0.66 2 1.32 2 2 C3.65 2.33 5.3 2.66 7 3 C7.33 3.99 7.66 4.98 8 6 C6.35 5.67 4.7 5.34 3 5 C3 4.34 3 3.68 3 3 C1.02 3 -0.96 3 -3 3 C-2.01 2.67 -1.02 2.34 0 2 C0 1.34 0 0.68 0 0 Z " fill="#FDF6E1" transform="translate(38,104)"/>
<path d="M0 0 C2.45234885 0.98093954 3.7809268 1.68703828 5.3125 3.875 C6.1132654 6.35009306 5.86325845 7.58287634 5 10 C5 9.01 5 8.02 5 7 C4.34 7 3.68 7 3 7 C0 2.61538462 0 2.61538462 0 0 Z " fill="#F7DA8D" transform="translate(403,344)"/>
<path d="M0 0 C2.33944736 0.28730055 4.6739143 0.61936779 7 1 C7 1.66 7 2.32 7 3 C5.35 3.33 3.7 3.66 2 4 C2 3.34 2 2.68 2 2 C1.01 1.67 0.02 1.34 -1 1 C-0.67 0.67 -0.34 0.34 0 0 Z " fill="#FACDA0" transform="translate(314,356)"/>
<path d="M0 0 C2.5 1.8125 2.5 1.8125 5 4 C5 4.99 5 5.98 5 7 C5.66 7.33 6.32 7.66 7 8 C5.68 8 4.36 8 3 8 C2.67 7.01 2.34 6.02 2 5 C1.34 4.67 0.68 4.34 0 4 C0 2.68 0 1.36 0 0 Z " fill="#F6D98B" transform="translate(364,300)"/>
<path d="M0 0 C0.391875 0.66 0.78375 1.32 1.1875 2 C2.85416667 4.29166667 2.85416667 4.29166667 5.6875 4.25 C6.8321875 4.12625 6.8321875 4.12625 8 4 C6.8125 5.5625 6.8125 5.5625 5 7 C2.375 6.8125 2.375 6.8125 0 6 C-1.24546405 3.50907189 -0.7767578 2.58919267 0 0 Z " fill="#F7CC91" transform="translate(286,156)"/>
<path d="M0 0 C1.73662334 3.22515763 2.8905928 6.51329166 4 10 C3.01 9.67 2.02 9.34 1 9 C1 8.01 1 7.02 1 6 C0.34 6 -0.32 6 -1 6 C-1.042721 4.33388095 -1.04063832 2.66617115 -1 1 C-0.67 0.67 -0.34 0.34 0 0 Z " fill="#FCD8BD" transform="translate(243,21)"/>
<path d="M0 0 C1.1875 1.625 1.1875 1.625 2 4 C0.625 7.25 0.625 7.25 -1 10 C-1.33 10 -1.66 10 -2 10 C-2 7.69 -2 5.38 -2 3 C-1.34 3 -0.68 3 0 3 C0 2.01 0 1.02 0 0 Z " fill="#F8C6A2" transform="translate(85,426)"/>
<path d="M0 0 C1.65 0 3.3 0 5 0 C5 0.66 5 1.32 5 2 C4.01 2.33 3.02 2.66 2 3 C1.67 3.66 1.34 4.32 1 5 C-0.65 4.67 -2.3 4.34 -4 4 C-2.68 3.67 -1.36 3.34 0 3 C0 2.01 0 1.02 0 0 Z " fill="#F9D9B1" transform="translate(32,286)"/>
<path d="M0 0 C2.475 0.495 2.475 0.495 5 1 C5.33 2.65 5.66 4.3 6 6 C5.34 6 4.68 6 4 6 C3.67 5.34 3.34 4.68 3 4 C2.01 3.67 1.02 3.34 0 3 C0 2.01 0 1.02 0 0 Z " fill="#F7D57B" transform="translate(117,210)"/>
<path d="M0 0 C1.5 1.375 1.5 1.375 3 3 C3 3.66 3 4.32 3 5 C0.03 4.505 0.03 4.505 -3 4 C-3 3.01 -3 2.02 -3 1 C-2.01 0.67 -1.02 0.34 0 0 Z " fill="#F9C7A8" transform="translate(269,490)"/>
<path d="M0 0 C0.66 0.33 1.32 0.66 2 1 C1.01 3.97 0.02 6.94 -1 10 C-2.10191901 5.59232396 -1.58706842 4.1077065 0 0 Z " fill="#F7CB99" transform="translate(112,355)"/>
<path d="M0 0 C0.99 0.495 0.99 0.495 2 1 C2 1.66 2 2.32 2 3 C3.65 3.33 5.3 3.66 7 4 C7 4.66 7 5.32 7 6 C7.66 6.33 8.32 6.66 9 7 C5.51375944 6.3543999 2.87501211 5.07639763 0 3 C0 2.01 0 1.02 0 0 Z " fill="#FBECD0" transform="translate(20,305)"/>
<path d="M0 0 C-1.45381897 0.69699552 -2.91322953 1.38233866 -4.375 2.0625 C-5.18710938 2.44535156 -5.99921875 2.82820313 -6.8359375 3.22265625 C-7.55007812 3.47917969 -8.26421875 3.73570312 -9 4 C-9.66 3.67 -10.32 3.34 -11 3 C-4.03571429 -1.41964286 -4.03571429 -1.41964286 0 0 Z " fill="#FAD8BB" transform="translate(81,266)"/>
<path d="M0 0 C1.46911544 3.81970016 0.52561108 6.30641529 -1 10 C-1.66 10.66 -2.32 11.32 -3 12 C-2.68950274 10.56206608 -2.3765224 9.1246682 -2.0625 7.6875 C-1.88847656 6.88699219 -1.71445313 6.08648437 -1.53515625 5.26171875 C-1 3 -1 3 0 0 Z " fill="#F9C8B2" transform="translate(196,109)"/>
<path d="M0 0 C0.33 0 0.66 0 1 0 C1.36923077 6.52307692 1.36923077 6.52307692 -0.5 8.9375 C-0.995 9.288125 -1.49 9.63875 -2 10 C-2.6875 8.375 -2.6875 8.375 -3 6 C-1.5625 2.75 -1.5625 2.75 0 0 Z " fill="#F9BE7A" transform="translate(226,81)"/>
<path d="M0 0 C0.66 0 1.32 0 2 0 C1.67 2.31 1.34 4.62 1 7 C-0.32 7 -1.64 7 -3 7 C-2.67 6.01 -2.34 5.02 -2 4 C-1.34 4 -0.68 4 0 4 C0 2.68 0 1.36 0 0 Z " fill="#F8C39F" transform="translate(259,473)"/>
<path d="M0 0 C0.66 0.66 1.32 1.32 2 2 C1.01 3.485 1.01 3.485 0 5 C-0.66 5 -1.32 5 -2 5 C-2 5.66 -2 6.32 -2 7 C-2.66 7 -3.32 7 -4 7 C-3.43628586 3.73045798 -2.50037734 2.17424117 0 0 Z " fill="#F8DB9C" transform="translate(198,376)"/>
<path d="M0 0 C3.96 0 7.92 0 12 0 C6.54545455 2.72727273 6.54545455 2.72727273 3 3 C2.01 2.01 1.02 1.02 0 0 Z " fill="#FADEB8" transform="translate(448,118)"/>
<path d="M0 0 C-2.64 1.65 -5.28 3.3 -8 5 C-5.69411765 -1.42352941 -5.69411765 -1.42352941 0 0 Z " fill="#F8D08F" transform="translate(426,190)"/>
<path d="M0 0 C0.33 0.66 0.66 1.32 1 2 C0.34 2 -0.32 2 -1 2 C-1.33 3.32 -1.66 4.64 -2 6 C-2.66 6 -3.32 6 -4 6 C-4.33 4.68 -4.66 3.36 -5 2 C-3.35 1.34 -1.7 0.68 0 0 Z " fill="#F9CC96" transform="translate(65,182)"/>
<path d="M0 0 C-4.43076923 3.07692308 -4.43076923 3.07692308 -7.3125 2.6875 C-8.1478125 2.3471875 -8.1478125 2.3471875 -9 2 C-8 0 -8 0 -6.1875 -0.6875 C-3.81180233 -1.02688538 -2.26664171 -0.72856341 0 0 Z " fill="#F9E1AA" transform="translate(341,144)"/>
</svg>
